<svg xmlns="http://www.w3.org/2000/svg" viewBox="0 0 1455.1772 592.9202"><defs><style>.cls-1{fill:#fff;}</style></defs><title>logo</title><g id="Ebene_2" data-name="Ebene 2"><g id="Ebene_1-2" data-name="Ebene 1"><path d="M122.99,445.7678a11.5667,11.5667,0,0,1,6.6392,8.9248,13.4181,13.4181,0,0,1-3.1562,11.1016,9.8989,9.8989,0,0,1-7.2925,4.3535,16.8978,16.8978,0,0,1-9.0337-1.7412,56.0823,56.0823,0,0,0-10.9927-3.7A54.5582,54.5582,0,0,0,87.0723,463.4a56.2,56.2,0,0,0-21.0059,3.7011,44.0939,44.0939,0,0,0-15.7822,10.5576A45.6438,45.6438,0,0,0,40.38,493.8752a60.5691,60.5691,0,0,0-3.374,20.68q0,13.28,3.81,23.0743a45.0166,45.0166,0,0,0,10.5572,16.3261,42.42,42.42,0,0,0,15.8911,9.6865,60.2728,60.2728,0,0,0,19.8086,3.1563A64.26,64.26,0,0,0,98.8271,565.71a40.2829,40.2829,0,0,0,11.3194-3.918,15.4834,15.4834,0,0,1,9.0337-1.5244,11.408,11.408,0,0,1,7.51,4.5713q4.3521,5.4448,3.1563,11.211a11.4772,11.4772,0,0,1-6.6392,8.3808,76.35,76.35,0,0,1-11.646,4.68,88.2643,88.2643,0,0,1-12.081,2.83,78.0719,78.0719,0,0,1-12.4082.98,87.8214,87.8214,0,0,1-29.7134-5.0069,75.1926,75.1926,0,0,1-25.0332-14.8017A68.3955,68.3955,0,0,1,15.02,548.6223q-6.3163-14.6938-6.313-34.0674a81.1,81.1,0,0,1,5.7686-30.91,71.7434,71.7434,0,0,1,16.3262-24.4893,75.3032,75.3032,0,0,1,24.9248-16.1084,83.4,83.4,0,0,1,31.3457-5.7685,80.6617,80.6617,0,0,1,18.7207,2.1767A76.2287,76.2287,0,0,1,122.99,445.7678Z" transform="translate(-8.707)"/><path d="M253.8154,532.6223q0,17.8521-7.9453,31.4551a57.0264,57.0264,0,0,1-21.3325,21.2236,62.6,62.6,0,0,1-59.8623,0,57.0069,57.0069,0,0,1-21.333-21.2236q-7.9482-13.6011-7.9453-31.4551,0-17.8461,7.9453-31.4551a57.8732,57.8732,0,0,1,21.333-21.332,61.83,61.83,0,0,1,59.8623,0,57.8933,57.8933,0,0,1,21.3325,21.332Q253.814,514.7742,253.8154,532.6223Zm-26.1216,0a39.5906,39.5906,0,0,0-4.4624-19.2646,33.2194,33.2194,0,0,0-11.9726-12.7344,32.6172,32.6172,0,0,0-33.3052,0,33.1976,33.1976,0,0,0-11.9722,12.7344,39.5538,39.5538,0,0,0-4.4624,19.2646,39.0709,39.0709,0,0,0,4.4624,19.0469,33.1912,33.1912,0,0,0,11.9722,12.7344,32.6172,32.6172,0,0,0,33.3052,0,33.213,33.213,0,0,0,11.9726-12.7344A39.1075,39.1075,0,0,0,227.6938,532.6223Z" transform="translate(-8.707)"/><path d="M326.9565,476.4612a12.0229,12.0229,0,0,1,8.7071,3.374,12.3545,12.3545,0,0,1,0,17.1963,12.007,12.007,0,0,1-8.7071,3.374H269.271a12.0024,12.0024,0,0,1-8.7075-3.374,12.3545,12.3545,0,0,1,0-17.1963,12.0183,12.0183,0,0,1,8.7075-3.374Zm-2.3945-46.8018a33.9438,33.9438,0,0,1,9.36,1.3057,17.82,17.82,0,0,1,7.6186,4.2451,10.2542,10.2542,0,0,1,3.0474,7.7275,11.6207,11.6207,0,0,1-3.1563,8.5987,10.0152,10.0152,0,0,1-7.2925,3.1562,26.7712,26.7712,0,0,1-5.8774-.98,31.3531,31.3531,0,0,0-7.6186-.9795q-5.4435,0-8.3809,2.3946a12.3379,12.3379,0,0,0-4.0269,5.5508,17.3013,17.3013,0,0,0-1.0883,5.5507V577.4651a13.05,13.05,0,0,1-3.7007,9.4687,13.4042,13.4042,0,0,1-18.7207,0,13.0358,13.0358,0,0,1-3.7-9.4687V466.4475A35.16,35.16,0,0,1,291.91,440.3254Q302.7921,429.6628,324.562,429.6594ZM417.73,476.4612a12.0227,12.0227,0,0,1,8.707,3.374,12.3545,12.3545,0,0,1,0,17.1963,12.0067,12.0067,0,0,1-8.707,3.374H360.0439a12.0026,12.0026,0,0,1-8.7075-3.374,12.3545,12.3545,0,0,1,0-17.1963,12.0185,12.0185,0,0,1,8.7075-3.374Zm-2.3945-46.8018a33.9426,33.9426,0,0,1,9.36,1.3057,17.82,17.82,0,0,1,7.6187,4.2451,10.2527,10.2527,0,0,1,3.0473,7.7275,11.621,11.621,0,0,1-3.1562,8.5987,10.0154,10.0154,0,0,1-7.2925,3.1562,26.7685,26.7685,0,0,1-5.877-.98,31.36,31.36,0,0,0-7.6191-.9795q-5.4433,0-8.3809,2.3946a12.3384,12.3384,0,0,0-4.0268,5.5508A17.3017,17.3017,0,0,0,397.92,466.23V577.4651a13.05,13.05,0,0,1-3.7007,9.4687,13.4042,13.4042,0,0,1-18.7207,0,13.0362,13.0362,0,0,1-3.7-9.4687V466.4475a35.16,35.16,0,0,1,10.8838-26.1221Q393.565,429.6628,415.335,429.6594Z" transform="translate(-8.707)"/><path d="M493.4824,592.92q-18.5046,0-32.1079-7.7276a53.3256,53.3256,0,0,1-20.8974-21.0058,61.3306,61.3306,0,0,1-7.2925-30.04q0-19.5923,7.9453-33.414a56.1877,56.1877,0,0,1,20.7886-21.2246,53.6785,53.6785,0,0,1,27.21-7.4,49.5332,49.5332,0,0,1,21.0059,4.5713,57.4657,57.4657,0,0,1,17.5234,12.5166A60.908,60.908,0,0,1,539.74,507.5891a55.9765,55.9765,0,0,1,4.4624,22.2031,11.1823,11.1823,0,0,1-4.1362,8.49,13.8473,13.8473,0,0,1-9.1426,3.2646H447.77L441.2388,519.78h79.8891l-4.789,4.3536v-5.877a19.8877,19.8877,0,0,0-4.4624-11.32,29.2045,29.2045,0,0,0-10.0132-7.9453,28.5354,28.5354,0,0,0-12.7344-2.9385,41.3062,41.3062,0,0,0-12.19,1.7412,23.3805,23.3805,0,0,0-9.7954,5.8779,28.5013,28.5013,0,0,0-6.53,11.1016q-2.3979,6.97-2.3945,17.6318,0,11.7555,4.8974,19.918a33.47,33.47,0,0,0,29.0606,16.6524,50.5975,50.5975,0,0,0,12.8432-1.3057,28.8785,28.8785,0,0,0,7.7276-3.1563q2.9391-1.8471,5.3335-3.1562a16.5945,16.5945,0,0,1,7.4008-1.959,10.9625,10.9625,0,0,1,11.1016,10.8838q0,5.877-6.0947,10.666-5.6631,4.7914-15.8906,8.3809A63.309,63.309,0,0,1,493.4824,592.92Z" transform="translate(-8.707)"/><path d="M619.7344,592.92q-18.5048,0-32.1079-7.7276a53.3265,53.3265,0,0,1-20.8975-21.0058,61.3306,61.3306,0,0,1-7.2925-30.04q0-19.5923,7.9453-33.414A56.1877,56.1877,0,0,1,588.17,479.5081a53.6786,53.6786,0,0,1,27.2105-7.4,49.5331,49.5331,0,0,1,21.0058,4.5713A57.4661,57.4661,0,0,1,653.91,489.1956a60.91,60.91,0,0,1,12.0815,18.3935,55.9765,55.9765,0,0,1,4.4624,22.2031,11.1826,11.1826,0,0,1-4.1362,8.49,13.8475,13.8475,0,0,1-9.1426,3.2646H574.0215L567.4907,519.78H647.38l-4.7891,4.3536v-5.877a19.8877,19.8877,0,0,0-4.4624-11.32,29.2036,29.2036,0,0,0-10.0132-7.9453,28.535,28.535,0,0,0-12.7343-2.9385,41.3069,41.3069,0,0,0-12.1905,1.7412,23.3811,23.3811,0,0,0-9.7954,5.8779,28.5025,28.5025,0,0,0-6.53,11.1016q-2.3979,6.97-2.3945,17.6318,0,11.7555,4.8975,19.918a33.47,33.47,0,0,0,29.06,16.6524,50.5989,50.5989,0,0,0,12.8433-1.3057,28.8791,28.8791,0,0,0,7.7275-3.1563q2.9392-1.8471,5.3335-3.1562a16.5946,16.5946,0,0,1,7.4009-1.959,10.9627,10.9627,0,0,1,11.1016,10.8838q0,5.877-6.0948,10.666-5.6631,4.7914-15.8906,8.3809A63.308,63.308,0,0,1,619.7344,592.92Z" transform="translate(-8.707)"/><path d="M754.9116,438.3665q20.8968,0,31.1284,9.7959,10.2291,9.7953,10.231,28.9511a32.29,32.29,0,0,1-5.0068,17.959q-5.01,7.73-14.8023,11.9727-9.7955,4.245-24.1626,4.2451l.8706-9.7959a75.5868,75.5868,0,0,1,15.4556,1.85,58.1566,58.1566,0,0,1,16.87,6.5312,38.7407,38.7407,0,0,1,13.4961,13.0606q5.3313,8.3818,5.3335,21.4414,0,14.3671-4.68,23.51a36.2439,36.2439,0,0,1-12.2993,14.1494,47.4287,47.4287,0,0,1-16.3257,6.8564,80.5181,80.5181,0,0,1-16.7617,1.8506H700.0557a13.0152,13.0152,0,0,1-13.2784-13.2783v-125.82a13.015,13.015,0,0,1,13.2784-13.2783Zm-3.9184,25.6865H712.2461l2.83-3.4824V499.97l-2.6123-1.959H751.646a17.3,17.3,0,0,0,11.32-4.1358q5.0046-4.1322,5.0064-11.9726,0-9.356-4.68-13.6045Q758.6089,464.053,750.9932,464.053Zm1.7412,59.6445H713.1167l1.959-1.7412V567.887l-2.1768-2.1768h41.3594q10.01,0,15.8906-5.333,5.8777-5.3321,5.8775-16,0-9.7954-3.918-14.1494a16.8033,16.8033,0,0,0-9.36-5.4414A51.4379,51.4379,0,0,0,752.7344,523.6975Z" transform="translate(-8.707)"/><path d="M833.7114,590.7434a12.4868,12.4868,0,0,1-9.36-3.81,13.0358,13.0358,0,0,1-3.7-9.4687V487.5627a13.0493,13.0493,0,0,1,3.7-9.47,13.4067,13.4067,0,0,1,18.7207,0,13.0639,13.0639,0,0,1,3.7007,9.47v20.462l-1.524-14.585a33.8863,33.8863,0,0,1,6.2041-9.251,36.8253,36.8253,0,0,1,8.5982-6.748,39.03,39.03,0,0,1,10.2314-4.0274,46.4489,46.4489,0,0,1,10.8838-1.3056,16.6572,16.6572,0,0,1,10.9932,3.7q4.4589,3.7045,4.4624,8.707,0,7.1836-3.7007,10.34a12.163,12.163,0,0,1-8.0542,3.1563,18.0249,18.0249,0,0,1-7.51-1.5234,18.6363,18.6363,0,0,0-7.7275-1.5235,18.9671,18.9671,0,0,0-7.9453,1.85,21.8745,21.8745,0,0,0-7.4014,5.7686A30.3478,30.3478,0,0,0,848.84,512.27a40.2859,40.2859,0,0,0-2.0678,13.6045v51.5908a13.05,13.05,0,0,1-3.7007,9.4687A12.4969,12.4969,0,0,1,833.7114,590.7434Z" transform="translate(-8.707)"/><path d="M959.7471,592.92q-18.5048,0-32.1079-7.7276a53.3265,53.3265,0,0,1-20.8975-21.0058,61.3306,61.3306,0,0,1-7.2925-30.04q0-19.5923,7.9453-33.414a56.1877,56.1877,0,0,1,20.7886-21.2246,53.6786,53.6786,0,0,1,27.2105-7.4,49.5331,49.5331,0,0,1,21.0058,4.5713,57.4661,57.4661,0,0,1,17.5235,12.5166,60.91,60.91,0,0,1,12.0815,18.3935,55.9765,55.9765,0,0,1,4.4624,22.2031,11.1826,11.1826,0,0,1-4.1362,8.49,13.8475,13.8475,0,0,1-9.1426,3.2646H914.0342L907.5034,519.78h79.8892l-4.7891,4.3536v-5.877a19.8877,19.8877,0,0,0-4.4624-11.32,29.2036,29.2036,0,0,0-10.0132-7.9453,28.535,28.535,0,0,0-12.7343-2.9385,41.3069,41.3069,0,0,0-12.1905,1.7412,23.3811,23.3811,0,0,0-9.7954,5.8779,28.5025,28.5025,0,0,0-6.53,11.1016q-2.3979,6.97-2.3945,17.6318,0,11.7555,4.8975,19.918a33.47,33.47,0,0,0,29.0605,16.6524,50.5989,50.5989,0,0,0,12.8433-1.3057,28.8791,28.8791,0,0,0,7.7275-3.1563q2.9392-1.8471,5.3335-3.1562a16.5946,16.5946,0,0,1,7.4009-1.959,10.9627,10.9627,0,0,1,11.1016,10.8838q0,5.877-6.0948,10.666-5.6631,4.7914-15.8906,8.3809A63.308,63.308,0,0,1,959.7471,592.92Z" transform="translate(-8.707)"/><path d="M1127.3584,472.1077a12.6966,12.6966,0,0,1,9.36,3.7,12.9693,12.9693,0,0,1,3.7,9.5781v92.0791a13.05,13.05,0,0,1-3.7,9.4687,13.4043,13.4043,0,0,1-18.7208,0,13.0365,13.0365,0,0,1-3.7006-9.4687v-10.667l4.789,1.96q0,2.8315-3.0473,6.8564a41.4812,41.4812,0,0,1-8.272,7.9453,50.7332,50.7332,0,0,1-12.2993,6.64,42.4322,42.4322,0,0,1-15.3462,2.7207,49.754,49.754,0,0,1-27.21-7.7276,54.3,54.3,0,0,1-19.2646-21.333q-7.076-13.6011-7.0747-31.2373,0-17.8461,7.0747-31.4551a54.9573,54.9573,0,0,1,19.0473-21.332,47.9605,47.9605,0,0,1,26.5572-7.7275,50.3755,50.3755,0,0,1,17.1968,2.8291,51.4762,51.4762,0,0,1,13.6049,7.1836,41.36,41.36,0,0,1,8.9248,8.8164q3.1532,4.4634,3.1563,7.51l-7.8364,2.83V485.386a13.05,13.05,0,0,1,3.7006-9.47A12.5,12.5,0,0,1,1127.3584,472.1077Zm-43.9717,96.8672a29.5026,29.5026,0,0,0,16.7612-4.7881,32.33,32.33,0,0,0,11.211-13.0616,41.7171,41.7171,0,0,0,4.0268-18.5029,42.246,42.246,0,0,0-4.0268-18.7207,32.3772,32.3772,0,0,0-11.211-13.0605,29.5249,29.5249,0,0,0-16.7612-4.7891,29.1448,29.1448,0,0,0-16.5439,4.7891,32.3541,32.3541,0,0,0-11.21,13.0605,42.1994,42.1994,0,0,0-4.0268,18.7207,41.6706,41.6706,0,0,0,4.0268,18.5029,32.3068,32.3068,0,0,0,11.21,13.0616A29.1226,29.1226,0,0,0,1083.3867,568.9749Z" transform="translate(-8.707)"/><path d="M1170.8911,590.7434a12.4849,12.4849,0,0,1-9.36-3.81,13.0341,13.0341,0,0,1-3.7007-9.4687V442.9377a13.0469,13.0469,0,0,1,3.7007-9.4687,13.4036,13.4036,0,0,1,18.72,0,13.0611,13.0611,0,0,1,3.7006,9.4687V577.4651a13.0483,13.0483,0,0,1-3.7006,9.4687A12.4961,12.4961,0,0,1,1170.8911,590.7434Zm69.2227-116.459a11.3546,11.3546,0,0,1,8.7075,4.1358q3.6987,4.1367,3.7,8.0537,0,5.2251-5.2241,9.7959l-65.522,60.2978-1.0884-30.04,49.8491-48.1074A13.15,13.15,0,0,1,1240.1138,474.2844Zm3.2651,116.2412a12.3893,12.3893,0,0,1-9.5776-4.3535l-40.271-42.665,19.8091-18.2862,39.1821,42.6661a13.8875,13.8875,0,0,1,4.1362,9.7959,11.3436,11.3436,0,0,1-4.4624,9.2509Q1247.7312,590.5257,1243.3789,590.5256Z" transform="translate(-8.707)"/><path d="M1319.7822,592.92q-18.5046,0-32.1079-7.7276a53.3256,53.3256,0,0,1-20.8974-21.0058,61.3306,61.3306,0,0,1-7.2925-30.04q0-19.5923,7.9453-33.414a56.1877,56.1877,0,0,1,20.7886-21.2246,53.6785,53.6785,0,0,1,27.21-7.4,49.5332,49.5332,0,0,1,21.0059,4.5713,57.4657,57.4657,0,0,1,17.5234,12.5166,60.91,60.91,0,0,1,12.0816,18.3935,55.9782,55.9782,0,0,1,4.4624,22.2031,11.1827,11.1827,0,0,1-4.1363,8.49,13.8473,13.8473,0,0,1-9.1426,3.2646h-83.1538l-6.5307-21.7676h79.8891l-4.789,4.3536v-5.877a19.8877,19.8877,0,0,0-4.4624-11.32,29.2045,29.2045,0,0,0-10.0132-7.9453,28.5354,28.5354,0,0,0-12.7344-2.9385,41.3067,41.3067,0,0,0-12.19,1.7412,23.3811,23.3811,0,0,0-9.7954,5.8779,28.5013,28.5013,0,0,0-6.53,11.1016q-2.3979,6.97-2.3945,17.6318,0,11.7555,4.8974,19.918a33.47,33.47,0,0,0,29.0606,16.6524,50.5975,50.5975,0,0,0,12.8432-1.3057,28.8785,28.8785,0,0,0,7.7276-3.1563q2.9391-1.8471,5.3335-3.1562a16.5946,16.5946,0,0,1,7.4009-1.959,10.9625,10.9625,0,0,1,11.1015,10.8838q0,5.877-6.0947,10.666-5.6631,4.7914-15.8906,8.3809A63.309,63.309,0,0,1,1319.7822,592.92Z" transform="translate(-8.707)"/><path d="M1400.9741,590.7434a12.4868,12.4868,0,0,1-9.36-3.81,13.0358,13.0358,0,0,1-3.7-9.4687V487.5627a13.0493,13.0493,0,0,1,3.7-9.47,13.4067,13.4067,0,0,1,18.7207,0,13.0639,13.0639,0,0,1,3.7007,9.47v20.462l-1.524-14.585a33.884,33.884,0,0,1,6.2041-9.251,36.8253,36.8253,0,0,1,8.5982-6.748,39.03,39.03,0,0,1,10.2314-4.0274,46.4489,46.4489,0,0,1,10.8838-1.3056,16.6572,16.6572,0,0,1,10.9932,3.7q4.4589,3.7045,4.4624,8.707,0,7.1836-3.7007,10.34a12.163,12.163,0,0,1-8.0542,3.1563,18.0249,18.0249,0,0,1-7.51-1.5234,18.6363,18.6363,0,0,0-7.7275-1.5235,18.9671,18.9671,0,0,0-7.9453,1.85,21.8745,21.8745,0,0,0-7.4014,5.7686,30.3478,30.3478,0,0,0-5.4419,9.6875,40.2859,40.2859,0,0,0-2.0678,13.6045v51.5908a13.05,13.05,0,0,1-3.7007,9.4687A12.4969,12.4969,0,0,1,1400.9741,590.7434Z" transform="translate(-8.707)"/><path class="cls-1" d="M824.5813,358.6871c10.3421,2.0543,27.2769,6.0734,49.9541-1.2661,29.6777-9.6053,64.5412-42.1,82.3879-103.8021,8.52-29.4578,20.7333-78.237,29.0451-120.6142,5.9041-31.75-73.0345-53.5018-96.81-59.3507-23.9749-4.9694-104.58-19.364-112.9369,11.8306-10.7642,41.8215-20.7674,91.1014-25.7753,121.355-10.49,63.3693,6.9647,107.7166,29.6046,129.175C797.35,352.4112,814.3637,356.0834,824.5813,358.6871Z" transform="translate(-8.707)"/><path d="M822.9863,364.4728a151.2615,151.2615,0,0,0,20.1787,3.0126,89.1922,89.1922,0,0,0,28.1943-2.875A94.5129,94.5129,0,0,0,904.3559,348.16a142.4768,142.4768,0,0,0,30.078-31.7838c10.1674-14.5,17.8861-30.6414,23.8142-47.2967,5.75-16.1547,9.8686-32.96,14.1222-49.5568q7.3294-28.5985,13.6634-57.442,1.6238-7.4146,3.1684-14.8466c.9217-4.4413,1.9722-8.8943,2.6746-13.3761a26.3349,26.3349,0,0,0-2.5844-16.0856c-4.9247-9.9725-15.058-17.0848-24.3939-22.5341-11.3607-6.6312-23.6875-11.6543-36.0608-16.0477-10.4409-3.7073-21.0639-6.9047-31.7791-9.7179-8.1793-2.1474-16.4843-3.6676-24.8305-5.0171A341.8235,341.8235,0,0,0,834.6969,60.26c-12.3615-.6145-25.0627-.4451-37.18,2.335-9.7372,2.2341-20.4342,6.9554-25.1531,16.37a48.55,48.55,0,0,0-3.259,10.15q-1.8323,7.2633-3.5765,14.5484-3.5163,14.6634-6.7388,29.3954-5.983,27.2639-11.0671,54.7174c-3.34,18.2005-6.347,36.4482-6.3992,55.0068a170.5463,170.5463,0,0,0,6.9653,50.2835c3.9366,12.8491,9.6865,25.3963,17.8269,36.1433a91.5873,91.5873,0,0,0,39.2555,29.9235,141.006,141.006,0,0,0,17.6157,5.34c3.0374.7726,6.6514-.9887,7.3807-4.1906a6.1024,6.1024,0,0,0-4.1906-7.3807,139.1992,139.1992,0,0,1-17.9751-5.4845c-.1808-.073-.361-.1474-.5416-.2206-.9622-.39.22.085.34.146-.4162-.2109-.8649-.3748-1.29-.5654q-1.42-.6363-2.8159-1.325-2.8667-1.4157-5.6165-3.0528-2.9743-1.7709-5.7929-3.7874-.7146-.5109-1.4182-1.0369c-.136-.1016-.9918-.7482-.41-.3037.54.4127-.1433-.1132-.208-.1647-1.11-.884-2.2053-1.7856-3.2757-2.7176a81.7979,81.7979,0,0,1-7.0235-6.8692q-1.3634-1.5106-2.65-3.0884c-.4239-.5191-.8329-1.05-1.253-1.5716-.3958-.4919.565.7379.4951.6405-.1129-.1574-.2359-.3093-.3527-.464q-.3534-.468-.7006-.9407a101.5788,101.5788,0,0,1-9.4041-15.6836q-1.07-2.1966-2.0455-4.4376c-.11-.2523-.6325-1.48-.2387-.5461s-.1245-.3057-.229-.5614q-.497-1.2156-.9676-2.4415-1.9218-5.0038-3.425-10.1553-1.5711-5.36-2.7179-10.8329-.601-2.8536-1.094-5.7285-.2434-1.4175-.4612-2.8392-.11-.7182-.2138-1.4374c-.04-.2755-.0781-.5512-.1171-.8268-.1138-.8043-.035.0155.0458.3475a44.08,44.08,0,0,1-.6928-6.1526q-.3-3.1728-.485-6.3549-.3959-6.7658-.3051-13.5482.0866-7.0666.6533-14.1163.2921-3.6808.7044-7.3508.203-1.81.4341-3.6179.0666-.5211.1355-1.0419c-.0109.0833-.1395.9959-.0376.2874.1135-.7892.2215-1.5791.3381-2.3678,2.4258-16.4084,5.7093-32.7232,9.0009-48.9753q5.7792-28.5344,12.5335-56.8617,1.6892-7.0444,3.456-14.07c.5294-2.1027.9953-4.24,1.6264-6.3143.1422-.4673.3239-.9182.48-1.38.2657-.7882-.7464,1.58-.244.5795.1223-.2436.2305-.4942.3541-.7374a21.13,21.13,0,0,1,1.54-2.5065c.6278-.9-.5423.6542-.3809.4887.1647-.1687.3034-.37.4582-.5479q.5055-.5826,1.0544-1.1254.5183-.5139,1.07-.992c.186-.1615.3773-.3162.5652-.4754.9523-.8069-.9692.6951-.3727.2829.9065-.6263,1.8-1.252,2.7563-1.8029.965-.5559,1.96-1.0595,2.974-1.5193.2518-.1142.5114-.2155.76-.3352-.4945.2376-1.4476.5959-.4319.1919q.8556-.34,1.7248-.6454a58.9208,58.9208,0,0,1,7.2733-2.0111q1.9662-.4192,3.9524-.7359c.6566-.1058,1.3149-.1988,1.9729-.2955.7314-.1074-1.4739.1859-.7376.0992.1439-.0169.2875-.0371.4312-.0551q.5787-.0726,1.1583-.1385c2.944-.3355,5.9012-.5487,8.8613-.6743A231.6982,231.6982,0,0,1,854.39,73.9559q2.2064.2612,4.4093.55c.3488.0456.6975.093,1.0464.1384-2.0287-.2644-.732-.098-.2613-.0334q1.0966.1508,2.1926.3078,4.1028.5877,8.1928,1.26,6.789,1.1133,13.54,2.4426c8.4027,1.6541,16.6783,4.0424,24.8752,6.5053q8.5426,2.5668,16.96,5.5282,4.4321,1.5687,8.8148,3.2725,2.212.8624,4.4084,1.7644.53.2181,1.06.4384c.2013.0839.4017.1722.6043.2528.0793.0315-1.2789-.5444-.6791-.2867.751.3227,1.5033.642,2.2524.9692a165.1263,165.1263,0,0,1,16.64,8.3046c2.4793,1.4348,4.9109,2.9548,7.2633,4.59q.8158.5671,1.6182,1.1534.3954.2892.7874.5832c.148.1112.2947.2244.443.3352.6368.4758-.4948-.3766-.5592-.4327,1.0118.8811,2.0923,1.6821,3.0971,2.5747a45.951,45.951,0,0,1,5.051,5.1972c.1812.2211.8277,1.0522.12.1321-.7064-.9184-.0741-.0921.094.1371q.5073.6918.9771,1.41a26.88,26.88,0,0,1,1.5927,2.7784c.1113.2254.2145.4542.3229.6809.47.9828-.1031-.1388-.2252-.5521.1578.5342.4027,1.0493.5714,1.5824.3049.9638.4485,1.9434.6853,2.92.0614.253-.1865-1.8181-.0966-.6756.0189.24.0439.479.0589.7194q.0485.7761.03,1.5543c-.0116.4908-.0531.9774-.0941,1.4662-.0973,1.1619.1938-1.08.09-.6447-.0978.41-.1507.8371-.2322,1.2509-3.7852,19.23-8.0525,38.3656-12.6118,57.4262-4.1433,17.3214-8.5227,34.5906-13.2671,51.7576-2.2384,8.0994-4.52,16.1883-7.322,24.1145q-1.2055,3.41-2.5192,6.78-.6,1.5393-1.2242,3.0694-.2648.6495-.5338,1.2971c-.1189.2863-.2365.5737-.3588.8586.309-.72.24-.5676-.0289.0575q-2.568,5.9775-5.5153,11.7823A174.7541,174.7541,0,0,1,924.2958,310q-1.597,2.2894-3.2747,4.5212c-.2654.353-.5336.7038-.8008,1.0554-.6417.8445.8159-1.0326-.0972.1219-.576.7283-1.1522,1.4562-1.7389,2.1761q-3.2863,4.0335-6.8634,7.8182-3.4429,3.6345-7.16,6.9953-1.7523,1.58-3.5658,3.09-.8575.7137-1.729,1.4106c-.2875.23-.577.4573-.866.6854-1.0031.7919.993-.7465-.0241.0184a102.6263,102.6263,0,0,1-14.5075,9.2361q-1.7625.9114-3.5653,1.7417c-.5678.2613-1.14.5124-1.7117.7646-1.0853.4786,1.2317-.5.3367-.1394-.3246.1309-.6471.2666-.972.3966a82.7569,82.7569,0,0,1-9.5864,3.1472q-3.7392.99-7.5563,1.6461-.7246.1238-1.4513.2348c-.3108.0475-.6406.1149-.9563.1405.195-.0158,1.3088-.16.1773-.0271-1.15.1352-2.3006.2587-3.455.3516a83.081,83.081,0,0,1-12.1491.0758q-2.588-.1716-5.1631-.4917c-.1753-.0217-.3505-.0446-.5259-.0661-1.0134-.1244.4842.0615.56.0757-.39-.0731-.7879-.112-1.18-.171q-1.1382-.171-2.2726-.3648c-2.6844-.4569-5.35-1.01-8.02-1.5413-3.0691-.6111-6.6256.8749-7.3808,4.1906C818.1168,360.0723,819.6946,363.8174,822.9863,364.4728Z" transform="translate(-8.707)"/><path d="M943.0187,115.17a54.4165,54.4165,0,0,1,6.0793,3.02c1.0481.6072,2.0749,1.252,3.0687,1.9449.2664.1857,1.6254,1.236.7459.5244.5217.4221,1.038.8487,1.5319,1.3034.3969.3654.7821.7437,1.15,1.1382q.2147.23.4216.4675l.2018.2362q.4623.57-.1367-.1927c.2875.1025.6588.9705.8045,1.2262.0933.1637.1728.3373.2679.5.3938.6731-.3058-.98.0676.1961.054.17.1029.3428.1448.5162.1912.7914-.213.4022.0108-.1522a2.7757,2.7757,0,0,0,.0235.5274c.003.86-.28.2517.0753-.1323-.0953.1029-.1217.5113-.1625.6441-.0318.1036-.0778.2064-.1045.311-.1889.74.5587-1.0877.2285-.5329-.2151.3615-.4884.747-.67,1.1223.5681-1.1719.5912-.726.1929-.29-.1863.2037-.3838.3972-.5892.5817-.422.379-.9508.436.2456-.16a6.96,6.96,0,0,0-.6106.4249,13.8309,13.8309,0,0,1-1.5162.8466c-.3989.1928-1.3653.4774.1519-.0414-.276.0944-.5443.2175-.8188.3176-.6416.2337-1.2941.437-1.9524.618a37.8,37.8,0,0,1-4.258.8886,5.0039,5.0039,0,0,0-.66.0973c1.0528-.32.9085-.1147.5238-.07-.4214.0484-.8419.1026-1.2637.1473q-1.317.14-2.6388.2272c-1.7988.1217-3.6015.1816-5.4043.1991-4.0141.0391-8.0292-.1284-12.033-.408-4.2207-.2947-8.4319-.7187-12.6319-1.227q-1.5131-.1831-3.0241-.3809a5.529,5.529,0,0,1-.9045-.12c.09.0288,1.0993.15.2937.039q-.8994-.124-1.7986-.25-3.1-.4389-6.1931-.93a357.6894,357.6894,0,0,1-41.2894-9.0182c-8.3364-2.3529-16.6159-4.9384-24.747-7.9289q-3.0086-1.1065-5.9849-2.2978a25.0622,25.0622,0,0,1-2.7563-1.1329c1.1815.6507-.2623-.1158-.5424-.2372q-.7953-.345-1.5866-.6989a100.1669,100.1669,0,0,1-10.0181-5.09c-1.4029-.8278-2.7789-1.7038-4.1029-2.6533-.3212-.23-.6346-.471-.9534-.7045-.459-.3362.9462.7589.3317.2535-.1321-.1087-.2671-.214-.3995-.3224-.5559-.4557-1.0975-.9293-1.6171-1.4262-.4583-.4384-.9006-.8938-1.3176-1.3718-.1858-.213-.35-.4528-.5452-.6563-.0262-.0274.7235,1.0283.4028.5161-.1133-.1809-.2513-.3491-.37-.5272-.2841-.4274-.515-.8737-.7619-1.3218-.4519-.82.3928,1.1761.1117.28-.0836-.2664-.1823-.5256-.2522-.7968-.0554-.2148-.0683-.4576-.14-.6648.4227,1.2283.1066,1.0569.08.3978-.0089-.2224.0111-.4439.0072-.6657-.0139-.8-.3287,1.3456-.0338.264.0233-.0854.0438-.179.0618-.2664.1733-.8413.3578-.051-.1138.1661.0212-.01.6038-1.0261.6013-1.0356.0834.327-.7378.8069-.1743.25.1456-.1437.2791-.2994.4269-.4416a4.108,4.108,0,0,0,.5649-.496c-.25.3769-.7463.5373-.0767.0967a12.8687,12.8687,0,0,1,1.1595-.6748c.1008-.0521.7182-.2713.751-.3621-.0186.0513-1.0562.4065-.2874.1223a27.6749,27.6749,0,0,1,3.1367-.9705q.7545-.1814,1.5177-.3244A4.9586,4.9586,0,0,1,814.51,88.35l-.5718.0746q.3125-.0408.6255-.0769t.6253-.0679q.93-.0945,1.8625-.1526a54.8829,54.8829,0,0,1,5.96-.046,4.5321,4.5321,0,0,0,4.5-4.5,4.5971,4.5971,0,0,0-4.5-4.5,49.6466,49.6466,0,0,0-14.2592,1.2467c-4.9384,1.2425-9.8487,3.8657-11.7332,8.8694-2.3227,6.167,2.1067,12.1962,6.6834,15.8781,6.4308,5.1734,13.9781,8.646,21.55,11.8023A268.6331,268.6331,0,0,0,850.94,125.89a360.0053,360.0053,0,0,0,43.7,10.34c9.0563,1.545,18.1722,2.8392,27.3249,3.6545,8.0668.7186,16.2892,1.1737,24.363.3018,5.8978-.637,13.1707-1.7717,17.2607-6.58a11.18,11.18,0,0,0,1.5707-12.3055c-2.1584-4.7732-6.9831-8.233-11.3707-10.7958a54.269,54.269,0,0,0-6.2277-3.1064c-2.1613-.9145-4.9226-.7218-6.1569,1.6144-1.0175,1.9259-.7,5.1774,1.6144,6.1568Z" transform="translate(-8.707)"/><path d="M822.5829,110.7154c6.0057,2.461,11.9428,5.0849,17.9536,7.5339a121.2954,121.2954,0,0,0,17.8879,5.55c6.0523,1.4391,11.9338,3.462,17.9555,5.0069.2279.0584.4577.1089.6859.1665a4.5605,4.5605,0,0,1,1.09.09c12.528,2.5633,25.3905,4.3559,38.0451,6.2074a88.9986,88.9986,0,0,0,19.6193.3934c3.0675-.2121,6.1121.1708,9.1792.2321.81.0162,1.78.0945,2.7762.13,1.51-.2291,3.0024-.51,4.479-.8324-9.4821-12.219-36.1261-25.36-69.0442-32.8177-32.8618-7.4452-62.5106-7.08-76.3634-.1752C811.4473,106.1777,816.9162,108.3934,822.5829,110.7154Z" transform="translate(-8.707)"/><path d="M978.22,183.512c2.23-.7355,4.4874-1.3819,6.779-1.8948q1.6087-.36,3.235-.6343c.2148-.036,1.9649-.2573.8725-.1465-.966.0979-.1251.0176.1184-.0116q.4528-.0543.9064-.1013a48.76,48.76,0,0,1,5.9183-.2545q1.4007.0276,2.7975.1444c.4271.036.8526.0828,1.2788.1276.2575.0271,1.0187.1263-.0112-.0075-1.1479-.1491.0481.015.2887.0545a37.12,37.12,0,0,1,5.005,1.1763q1.1123.3457,2.2.7651c.1786.069.3551.1437.5341.2115.719.2722-1.4985-.6675-.5135-.2161.3855.1767.7721.3494,1.1534.5351a32.4391,32.4391,0,0,1,4.0648,2.3572c.3.2044.593.4172.8884.6279,1.0337.7377-1.1734-.95-.0355-.0317q.8881.7165,1.7233,1.4956a35.2248,35.2248,0,0,1,3.0852,3.31c.8035.9692-.9068-1.2264-.0443-.06q.3156.427.6176.8639.68.9836,1.2891,2.0136.5426.9168,1.0282,1.8658a7.176,7.176,0,0,1,1.0231,2.1773c.0009.0263-.6225-1.54-.2955-.69.0643.1671.1328.3327.1974.5q.1941.5022.3735,1.01.4056,1.1473.7362,2.32a39.1513,39.1513,0,0,1,.9922,4.5364,2.36,2.36,0,0,1,.0822.545c-.01.0227-.2076-1.7043-.1049-.7735.0406.3674.0852.7341.12,1.1021q.1191,1.25.1623,2.5047a54.0452,54.0452,0,0,1-.141,5.54q-.1155,1.697-.2932,3.3891c-.0584.5557-.1269,1.11-.19,1.6651-.1224,1.08.0292-.2122.0537-.3592-.0677.406-.1147.8175-.1759,1.2246a92.4371,92.4371,0,0,1-2.9539,13.09q-.9189,3.0292-2.04,5.9922c-.3416.9022-.7025,1.7961-1.0651,2.69-.3781.9321.1455-.36.19-.4461-.1344.26-.2343.5449-.3518.8135q-.3171.7245-.646,1.4438a100.06,100.06,0,0,1-11.1221,18.6091c-.1383.1833-1.0187,1.3335-.2923.3887.7239-.9415-.1465.181-.29.3613q-.7411.9339-1.5042,1.85-1.3487,1.6188-2.7653,3.1794-2.4591,2.7071-5.1281,5.211-2.997,2.805-6.1551,5.4312-1.5077,1.2524-3.0513,2.46c-.2275.179-.8508.7355.1424-.1094-.2245.1909-.4789.3648-.7131.5413q-.7948.5992-1.5995,1.1856a118.2941,118.2941,0,0,1-11.9989,7.702q-2.8059,1.5674-5.7,2.97-1.3036.632-2.624,1.2285-.6463.2924-1.2968.5759c-.2145.0936-.43.1854-.6445.2787-1.1775.5119,1.3332-.5438.1523-.0658-3.4173,1.3832-6.8774,2.6352-10.413,3.6836a122.1882,122.1882,0,0,1-17.673,3.7368c-.76.1074,1.79-.232.4934-.0674-.2865.0364-.5729.0737-.8594.1095q-.93.1161-1.8613.2234a6.54,6.54,0,0,0-4.2426,1.7573,6.0972,6.0972,0,0,0-1.7574,4.2427c.1317,2.9406,2.6609,6.3873,6,6a145.4277,145.4277,0,0,0,18.52-3.1836,115.03,115.03,0,0,0,22.9253-8.4815,126.3967,126.3967,0,0,0,25.4076-16.9049,106.0662,106.0662,0,0,0,14.0772-14.1291c10.5285-12.9454,18.2783-28.1708,21.6019-44.587,1.7868-8.8258,2.7694-17.9769,1.11-26.8921a41.8655,41.8655,0,0,0-9.24-19.26,38.4871,38.4871,0,0,0-18.3954-11.7575c-8.4874-2.5232-17.6049-2.1526-26.1731-.2607a71.4123,71.4123,0,0,0-6.9721,1.9375c-2.9751.9815-5.2231,4.19-4.1906,7.3807.96,2.9671,4.1892,5.2435,7.3807,4.1906Z" transform="translate(-8.707)"/><path d="M974.17,206.5474a58.23,58.23,0,0,1,8.0577-2.0912c.5132-.0909,2.5341-.23.5-.1061.5584-.0339,1.1169-.1306,1.6752-.177,1.0506-.0872,2.1053-.13,3.16-.1157.9763.0129,1.9345.12,2.9058.1906-2.1793-.1579-.5265-.0667.0271.0413q.7721.1506,1.5315.358.6093.1674,1.207.3743c.1558.0541.3094.1148.4653.1687.5725.1979.9235.6629-.5328-.2357.6627.4089,1.4108.6844,2.0761,1.1038.3188.2009.6164.4638.9445.6454-1.7067-.9442-.67-.5356-.1628-.0846.6194.5512,1.1276,1.183,1.6959,1.78-1.3886-1.4584-.5015-.67-.1391-.1317q.3161.4689.5982.96.2856.4956.5368,1.01c.0675.1379.1272.2815.1976.4178.4556.8828-.6079-1.5962-.1965-.4651.26.7153.5067,1.4284.7006,2.1654q.1572.5975.28,1.2032c.1132.554.31,2.4687.0761.1589a36.6954,36.6954,0,0,1,.158,5.7825c-.0749,1.344-.21,2.6788-.3549,4.0166-.1574,1.4535.2277-1.3863-.0077.0457-.0443.2693-.0825.54-.1263.8091q-.1943,1.1952-.4366,2.382a61.36,61.36,0,0,1-2.0739,7.6181c-.3757,1.0967-.7954,2.1735-1.2164,3.2531-.4747,1.217.5739-1.305.053-.1171-.0945.2155-.188.4313-.2838.6462q-.4247.9522-.88,1.89a65.2468,65.2468,0,0,1-3.2583,5.907q-1.6112,2.5958-3.4556,5.0363c-.9333,1.2348.87-1.0955-.0745.0915q-.4128.5187-.8359,1.0291-.8373,1.01-1.715,1.9848a90.6309,90.6309,0,0,1-9.5958,8.959q-.9289.7706-1.8743,1.5209c-.313.2481-1.4258.818-.1387.1157a9.8156,9.8156,0,0,0-1.01.7618q-1.8836,1.401-3.8439,2.6946A63.23,63.23,0,0,1,961.15,272.48c-.5963.2825-1.28.4927-1.8438.8324,1.3786-.8311.536-.2272.0851-.0485q-.5059.2-1.0161.39-1.9444.7233-3.944,1.2845t-4.0439.9535c-.7177.138-1.4383.2511-2.16.3675-.4356.07-.98-.04.5007-.0636-.485.0076-.992.1172-1.4755.1668A6.4908,6.4908,0,0,0,943.01,278.12a6.0968,6.0968,0,0,0-1.7574,4.2426c.1333,2.9759,2.6563,6.3434,6,6a60.1765,60.1765,0,0,0,17.7736-4.5459,68.4711,68.4711,0,0,0,14.5189-8.6389c8.02-6.1061,15.277-12.82,20.9088-21.2256a69.32,69.32,0,0,0,11.2621-31.6863c.8662-8.6186-.4889-18.521-7.5473-24.4262-9.37-7.8389-22.32-6.4467-33.1884-2.864-2.9754.9808-5.223,4.1906-4.1907,7.3807.96,2.9677,4.189,5.2428,7.3808,4.1907Z" transform="translate(-8.707)"/><path d="M920.844,118.9271c2.4191.59,4.3134,2.3931,6.5529,3.4055a18.1208,18.1208,0,0,0,8.0559,1.6322c1.9257-.0611,1.9342-3.0613,0-3a14.8331,14.8331,0,0,1-7.218-1.5477c-2.213-1.1286-4.1309-2.7824-6.5933-3.3829-1.8752-.4573-2.6753,2.435-.7975,2.8929Z" transform="translate(-8.707)"/><path class="cls-1" d="M984.5476,180.7234s-5.6141,1.645-7.1628,1.5051c-2.8107-.2538-6.7457-2.2123-5.7846-6.4193s-5.2407.58-5.2407.58l-5.8572,26.62,4.6354.0608s1.41-5.859,5.3-7.1256a85.621,85.621,0,0,1,8.3408-2.0345Z" transform="translate(-8.707)"/><path class="cls-1" d="M952.8015,286.582a84.8683,84.8683,0,0,1-8.4835,1.1576c-1.2749-.0255-4.9717-1.0971-2.9891-5.957s-5.8511-.7858-5.8511-.7858l-12.6936,22.7639,2.4662,4.1345.954,1.0018a15.1555,15.1555,0,0,1,9.1813-4.9668c5.9674-.8707,7.2247-1.1729,7.2247-1.1729Z" transform="translate(-8.707)"/><path class="cls-1" d="M700.91,354.35c-12.014,3.73-31.6046,10.616-59.4285,4.7427-36.4131-7.6865-81.8405-41.8822-110.7292-112.8607-13.7919-33.8863-34.3807-90.2357-49.54-139.4768-10.9745-36.9331,79.9663-72.61,107.4447-82.5218C616.4817,15.34,710.32-11.8154,724.1347,24.152c18,48.2752,36.0293,105.4948,45.7532,140.7644,20.3679,73.876,5.2026,128.6757-18.9769,156.9662C732.4351,343.5,712.7078,349.9837,700.91,354.35Z" transform="translate(-8.707)"/><path d="M699.3152,348.5647a169.0477,169.0477,0,0,1-21.0807,5.5373c-1.0531.1838-2.11.3374-3.1661.5019-.6943.1081.392-.05.4309-.0551-.315.0388-.6295.0806-.9446.1187q-.9606.1159-1.9233.2133-3.6685.3713-7.3581.4634-4.1266.1033-8.2518-.1413-2.0408-.12-4.0754-.3237c-.698-.07-1.3945-.15-2.0913-.23-.0168-.002-1.01-.1243-.4153-.048.6329.0813-.9059-.1305-1.04-.1507a99.2212,99.2212,0,0,1-20.73-5.4331q-1.0713-.41-2.1338-.843a11.2182,11.2182,0,0,0-1.071-.443c-.07-.02,1.2593.5466.6666.2794-.2541-.1147-.5124-.2208-.7678-.3327q-2.2607-.9894-4.4767-2.0769-4.7044-2.3055-9.1994-5.0092-4.6708-2.801-9.105-5.9732-1.107-.79-2.1991-1.6007-.5514-.4093-1.099-.824c-.1572-.1189-.3136-.2389-.4709-.3577-1.0678-.8063.7331.5853.1161.0918-1.5214-1.2167-3.05-2.42-4.5417-3.6742a172.2014,172.2014,0,0,1-18.03-17.6442q-2.2208-2.5063-4.3527-5.09-1.05-1.2718-2.079-2.5613-.52-.651-1.0336-1.3064c-.1969-.2509-.3922-.503-.5888-.7541-.5569-.711.8543,1.1236-.0891-.1187q-4.3491-5.7272-8.3355-11.7135a246.6476,246.6476,0,0,1-15.6414-27.3394c-4.6883-9.5184-7.8546-17.3439-11.7108-27.0958q-5.3-13.4028-10.3369-26.9077-11.8641-31.6895-22.6609-63.7671-5.5329-16.4442-10.7315-32.9988c-.7059-2.2563-1.5055-4.5083-2.0735-6.8039-.1444-.5836-.2381-1.1728-.36-1.76-.1976-.9492.1546,1.6374.0616.4648-.0265-.3347-.0647-.6681-.0854-1.0034a25.2558,25.2558,0,0,1,.0779-3.6271c.1011-1.2355-.1306.7042-.07.4733.0736-.28.095-.585.15-.871q.1916-1.0017.4649-1.9855.2418-.8742.5423-1.7309c.1011-.2894.2115-.5752.3175-.8629.0457-.124.1-.245.1448-.3693.3214-.8862-.5481,1.2145-.2445.5729.5684-1.2012,1.1321-2.3915,1.7981-3.5438.6968-1.2056,1.458-2.3734,2.2669-3.5066.2014-.2822.4086-.56.613-.84.1154-.1582.2606-.3135.3615-.479.0507-.0832-.8775,1.103-.4747.6167.4906-.5923.9629-1.1989,1.4621-1.7845a76.0791,76.0791,0,0,1,6.73-6.8871q1.8657-1.6972,3.8156-3.2988.9651-.7953,1.947-1.57c.2131-.1682,1.279-1.0161.5345-.4209s.452-.34.7-.5262c12.1515-9.1338,25.637-16.467,39.3009-23.059q5.01-2.4169,10.0862-4.6932,2.4426-1.0972,4.898-2.1652,1.1563-.5031,2.3152-1,.6526-.28,1.3063-.5577c.4054-.1724,1.9027-.7786.1812-.0782,5.5751-2.2684,11.132-4.5665,16.7594-6.7045,9.3229-3.5419,18.8455-6.39,28.4628-9.0245a396.617,396.617,0,0,1,41.9265-9.2988q2.7759-.4451,5.5605-.8345c.1916-.0267.3832-.0528.5748-.08,1.0478-.1464-.3293.0521-.4463.0594.4462-.0277.8949-.1173,1.3388-.1737q1.43-.1815,2.8619-.3459c3.6878-.4224,7.3864-.756,11.0923-.97a121.0757,121.0757,0,0,1,20.2785.3315c.3762.0416.7515.0917,1.1278.1322.89.096-1.5455-.2319-.0076-.0005.7771.1169,1.5532.2381,2.3268.3767,1.4437.2585,2.8794.5634,4.3009.9252,1.3541.3446,2.6953.741,4.0152,1.2.6148.2137,1.22.4488,1.8277.6819,1.1237.4313-1.1821-.536-.2984-.13.3266.15.6564.2928.9813.4466a31.965,31.965,0,0,1,3.4408,1.8862c.5008.3175.984.6584,1.47.9978.79.5518-.1039-.013-.4149-.3333.2516.2592.5887.4749.8628.7113a23.218,23.218,0,0,1,2.51,2.5174c.176.2064.8616,1.0888.1468.1505-.6961-.9138-.0488-.0548.1152.1764q.5328.7515,1,1.5465.441.75.8208,1.5337a8.36,8.36,0,0,0,.3689.8c.0061.01-.5948-1.5521-.3116-.7294.09.2612.197.5183.2938.777q1.5247,4.0746,3.01,8.1639,2.9388,8.0492,5.7865,16.131,5.8177,16.4963,11.3183,33.1019,10.1628,30.6205,19.3479,61.557c2.6722,9.05,5.357,18.1139,7.6748,27.2621q2.2695,8.9577,3.9494,18.0513.7833,4.2683,1.4232,8.5613c.1009.6781.1971,1.3568.2945,2.0354.0066.0466.14,1.0018.0517.3595-.0976-.7064.0646.4909.0845.6442q.2772,2.1408.5165,4.2862a216.21,216.21,0,0,1,1.27,31.4435q-.2488,7.1353-1.0325,14.2385c-.1229,1.101-.2621,2.2-.4,3.2988-.1106.885.1548-1.0772.026-.1979-.0339.2314-.0647.4633-.0978.6949q-.1317.921-.2736,1.84-.5216,3.3825-1.1816,6.7417a146.6272,146.6272,0,0,1-6.6792,23.6314q-.4914,1.2972-1.01,2.5839a9.1662,9.1662,0,0,1-.5951,1.45c-.0145.0014.4942-1.1385.2264-.537-.1312.2947-.2544.5934-.3832.8891q-1.1018,2.5283-2.3165,5.0053c-1.5478,3.1536-3.2363,6.2391-5.0751,9.2326q-1.3164,2.1433-2.7357,4.221-.67.9792-1.3633,1.942a10.4483,10.4483,0,0,0-1.59,2.1424c-.0171.0529.8263-1.051.4346-.5619-.1366.1707-.2693.3447-.4049.5163q-.354.4478-.7133.8911-.8124,1.0015-1.6539,1.9786-2.9244,3.4035-6.1236,6.558-2.9544,2.9075-6.1386,5.5682-.7322.6111-1.4759,1.2082c-.2793.2241-.5619.4438-.8414.6675.0756-.06.708-.5351.1649-.1269-1.0336.7769-2.0707,1.5476-3.1294,2.29a99.9344,99.9344,0,0,1-11.86,7.132q-2.5929,1.3274-5.254,2.515-.6306.2825-1.2645.5578c-.1781.0773-.3578.1515-.5351.2308-.7328.3275,1.1111-.4553.375-.1565-.8013.3254-1.5986.66-2.4023.98-2.8653,1.14-5.7661,2.1866-8.6584,3.2557-2.9356,1.0851-5.2477,4.1144-4.1907,7.3807.9312,2.8774,4.2288,5.3557,7.3807,4.1907a184.6924,184.6924,0,0,0,20.9922-8.7915,105.0812,105.0812,0,0,0,25.3226-18.417c11.7866-11.5993,20.27-25.6717,26.1764-41.0481,6.5339-17.01,9.5813-35.3287,10.2617-53.49.8658-23.1138-2.2749-46.3774-7.9206-68.7646-4.9171-19.4985-10.9918-38.7574-17.0209-57.9339q-10.52-33.46-22.1933-66.546-2.95-8.3282-5.9952-16.6228c-1.3983-3.8055-2.5843-7.8561-4.774-11.3046A31.2488,31.2488,0,0,0,714.3035,5.89C701.918.0288,687.522-.48,674.0642.2676c-15.5506.8645-31.0193,3.5848-46.1928,7.0124-12.2556,2.7684-24.3931,6.0682-36.3957,9.7805a336.0832,336.0832,0,0,0-31.5013,12.0418,352.9169,352.9169,0,0,0-41.1307,20.2761,183.1107,183.1107,0,0,0-19.3389,12.9382A90.561,90.561,0,0,0,484.47,76.3818c-4.0565,4.965-7.6071,10.4858-9.2115,16.7683a28.5391,28.5391,0,0,0-.9193,8.7047c.253,4.1029,1.4957,7.8417,2.713,11.7382,7.0214,22.4766,14.5812,44.7855,22.483,66.967,7.0147,19.6913,14.288,39.2971,22,58.7267,7.9678,20.0732,16.98,39.5856,29.1111,57.5233,10.2657,15.1786,22.3319,29.3032,36.5068,40.97a137.4471,137.4471,0,0,0,39.085,23.096,106.1561,106.1561,0,0,0,55.6269,4.7191,171.4681,171.4681,0,0,0,20.64-5.4593c2.9931-.9308,5.2113-4.2268,4.1907-7.3808C705.7216,349.7447,702.5248,347.5666,699.3152,348.5647Z" transform="translate(-8.707)"/><path d="M524.49,72.0138a54.6782,54.6782,0,0,0-14.557,11.08c-4.21,4.7541-7.1617,10.9824-4.3291,17.1964,3.061,6.7148,11.53,8.4448,18.11,8.9955,9.4487.7909,19.1187-.6,28.415-2.1746,10.578-1.7914,21.0384-4.2667,31.3972-7.0448q13.123-3.5193,26.0483-7.7374c8.2241-2.6884,16.3154-5.8817,24.33-9.1325,10.18-4.129,20.267-8.53,30.0644-13.5056,8.7969-4.4673,17.4688-9.3776,25.1515-15.61,5.243-4.2532,11.2278-10.2763,11.1588-17.5487-.1178-12.41-15.5-14.3876-24.9338-13.9747a76.5446,76.5446,0,0,0-8.1613.8462c-2.3348.3552-3.83,3.412-3.143,5.5355.8233,2.5442,3.0334,3.5236,5.5355,3.143.2538-.0386.5079-.075.7619-.1125.9678-.1428-1.1263.1334-.1327.02.5615-.0642,1.1222-.1317,1.6847-.1867q1.9558-.1913,3.9209-.2642c1.2626-.0456,2.5268-.0524,3.79-.0106q.95.0313,1.8991.1012.471.0352.941.0811.3114.03.6222.0661.7553.0926-.2725-.0427a5.56,5.56,0,0,1,1.8028.3079c.5793.1175,1.1551.2529,1.7247.4111.5483.1523,1.0911.3247,1.6246.5231.62.23.48.504-.0585-.0385a4.6432,4.6432,0,0,0,.9556.4715,11.9438,11.9438,0,0,0,1.305.8182c-.8493-.3131-.5446-.4848-.1359-.08.172.17.3486.3464.5265.51.6857.6315.0824-.1405-.08-.1714.1034.02.351.51.4059.6.1264.2074.222.4354.35.6406.4635.7461-.3143-1.0956-.1214-.2371.0587.2612.1369.5216.2.7824.2669,1.1064-.051-1.1844-.0333-.2726.0051.2675.0271.5325.0207.8007-.0145.615-.3947,1.4581.065-.1167-.1577.54-.221,1.103-.3994,1.6431-.1649.4992-.7181,1.275.0842-.1044-.1791.3079-.3006.6613-.4662.9786a17.6923,17.6923,0,0,1-1.0161,1.6945c-.1953.29-.4055.5687-.6067.8544-.4384.6224.7544-.9311.2638-.3388-.1573.19-.309.3845-.4673.5737a37.4172,37.4172,0,0,1-3.5113,3.6173q-.9878.9-2.02,1.75c-.3585.2962-.7225.5854-1.085.8768-.2642.2124-.795.7976.1611-.1187a8.2325,8.2325,0,0,1-.77.5851c-1.7042,1.2785-3.4586,2.4895-5.2427,3.6535-3.973,2.5921-8.0927,4.9564-12.2747,7.1933-4.5157,2.4153-9.1121,4.6785-13.7533,6.842q-3.5281,1.6448-7.0907,3.2145-1.6959.7484-3.3982,1.4816-.8448.3641-1.6911.7244-.4211.1794-.8427.358-.678.2866.2345-.0987-.2795.1178-.559.2351-12.38,5.1955-25.0265,9.7273c-7.5055,2.6917-15.1635,4.9808-22.8282,7.1717-9.7552,2.7886-19.5936,5.3158-29.5284,7.3824-4.937,1.0269-9.9,1.9385-14.8919,2.6559-.363.0522-2.3024.232-.8111.1165-.5665.0439-1.1345.1472-1.6988.216q-1.7991.2192-3.6032.3955c-2.1867.212-4.3791.3721-6.5746.4554-2,.0759-4.0027.0894-6.0021.0042-.8814-.0376-1.7621-.0942-2.6406-.1757-.4192-.0389-.8371-.087-1.2555-.134-.3888-.0436-1.0572-.2728.3844.0538-.2576-.0584-.53-.0783-.7911-.1214a26.0888,26.0888,0,0,1-4.4428-1.1c-.3061-.1081-.616-.2749-.9288-.3557,1.512.391.5412.2318.0633-.0084a17.0051,17.0051,0,0,1-1.664-.9968c-.7752-.5068.97.8751.1353.09-.2-.1887-.4049-.37-.5947-.57-.3849-.4055-.6557-1.14.0939.1926-.1507-.2679-.3606-.5083-.5165-.7762-.1321-.2269-.2223-.496-.3666-.7124.811,1.2163.29.7786.1175.1876a4.3881,4.3881,0,0,0-.1757-.8051c.3868.669.0779.8208.0639.1176-.0054-.2721.0173-.54.0253-.8114.023-.7838-.2385,1.088.0558-.1572.0646-.2733.1415-.5437.2281-.8109.3246-1.0013-.0658-.0228-.0432-.0026a8.3,8.3,0,0,1,.824-1.6028c.3218-.5456.6844-1.0592,1.0456-1.5786.63-.9065-.6362.7205.1006-.1236.2948-.3377.5779-.6845.8791-1.0168a36.3929,36.3929,0,0,1,2.99-2.918q.8017-.7026,1.6353-1.3677c.1369-.11,1.0942-.8258.21-.1682.3769-.28.7521-.5622,1.1333-.8366a64.9947,64.9947,0,0,1,6.5407-4.13,4.5441,4.5441,0,0,0,1.6144-6.1568,4.5918,4.5918,0,0,0-6.1568-1.6144Z" transform="translate(-8.707)"/><path d="M672.2813,59.884c-6.8181,3.6707-13.5344,7.5262-20.36,11.1833a144.711,144.711,0,0,1-20.53,8.8217c-7.0012,2.4641-13.7266,5.6-20.6782,8.1853-.2631.0978-.5295.1865-.7929.2834a5.4476,5.4476,0,0,0-1.2818.2432c-14.5438,4.6076-29.581,8.3424-44.3642,12.1212a106.18,106.18,0,0,1-23.2289,2.9195c-3.666.1318-7.2306.9667-10.862,1.4229-.9593.1205-2.1.3346-3.2777.5017-1.82-.0831-3.6261-.23-5.4183-.4277C531.21,89.4554,561.18,70.533,599.3051,57.569c38.0595-12.9418,73.2832-16.2153,90.5827-9.7544C684.9263,53.1079,678.7146,56.4205,672.2813,59.884Z" transform="translate(-8.707)"/><path d="M499.4844,152.8637c-10.8352-2.3568-22.21-3.0336-33.0335-.2209a45.4295,45.4295,0,0,0-33.74,35.165c-1.9933,9.567-1.0121,18.9736,1.1512,28.43a121.0429,121.0429,0,0,0,28.4071,53.6957,116.1081,116.1081,0,0,0,14.863,13.8714,154.2226,154.2226,0,0,0,32.1234,19.506,135.9722,135.9722,0,0,0,29.4485,9.4052,151.75,151.75,0,0,0,23.904,2.5875c1.4983.046,2.9971.0728,4.4959.0884a6,6,0,0,0,0-12c-3.1518-.0329-6.3031-.1214-9.45-.3122q-2.5634-.1554-5.12-.4-1.3516-.13-2.7-.2866-.6926-.08-1.3841-.1681c-.2793-.0354-.5638-.0608-.8411-.1093l1.03.1378q-.2844-.0391-.5686-.0795a128.3924,128.3924,0,0,1-26.3926-6.6651q-1.6741-.6182-3.3312-1.2818c-.5936-.2376-1.1841-.4827-1.7756-.7257-.8049-.3307,1.4.6065.1815.0753-.3594-.1567-.72-.3108-1.0788-.4685q-3.9027-1.7151-7.6941-3.67a151.3759,151.3759,0,0,1-15.6654-9.3349c-2.5656-1.7416-5.07-3.5664-7.5422-5.4377-.5934-.4491.812.6763.772.5968-.0581-.1156-.3463-.27-.45-.3513q-.3843-.3021-.7656-.6077-.8415-.6744-1.6689-1.3662-3.7568-3.1388-7.234-6.5936-4.0487-4.0119-7.7077-8.3934-.9636-1.1538-1.8985-2.3314c-.27-.34-1.43-1.8911-.1968-.2381-.3731-.5-.757-.9922-1.13-1.4927q-1.972-2.6487-3.7949-5.4042a114.849,114.849,0,0,1-7.1314-12.383q-.8042-1.6242-1.5562-3.2735-.3811-.8364-.7486-1.679c-.0986-.2261-.1958-.4529-.2936-.6794-.4758-1.1024.534,1.2935-.0429-.1123q-1.484-3.6153-2.71-7.3291a110.7289,110.7289,0,0,1-4.0343-16.2936q-.1587-.9407-.3016-1.884c-.2289-1.53.1677,1.4337-.0085-.06q-.1779-1.5088-.2648-3.0266a48.716,48.716,0,0,1,.008-5.723q.0816-1.3449.24-2.6837c.1741-1.4717-.2285,1.5025.0022.002q.1116-.7255.2465-1.4471a44.1729,44.1729,0,0,1,1.32-5.2631q.3981-1.2525.8727-2.4788c.18-.4633.9138-2.0167-.0094-.0218.22-.4749.4235-.9566.6491-1.429a39.981,39.981,0,0,1,2.55-4.5543c.4755-.7318.9823-1.4388,1.4971-2.1431.6316-.8642-.9726,1.2163-.298.3844.11-.1359.2183-.2733.3289-.4089q.4984-.6111,1.022-1.2015a38.1544,38.1544,0,0,1,3.9924-3.8882c.3434-.2886.7041-.5575,1.0455-.8479.0029-.0025-1.2955.972-.57.4446.22-.16.4369-.3235.6579-.4819q1.1163-.8,2.2871-1.5195a50.9781,50.9781,0,0,1,5.2735-2.729c-1.933.8993-.2541.1169.19-.0525q.6918-.2639,1.3922-.5041,1.5759-.5408,3.1887-.9643,1.5125-.3983,3.0486-.6972.7074-.1381,1.4185-.2558c.2664-.0442.5336-.0831.8-.1265,1.1761-.1915-1.4074.1647-.296.0361a65.6055,65.6055,0,0,1,15.0009.0224c.2588.03.5173.0618.776.0926,1.3969.1662-1.428-.2218-.0263-.0029.5973.0933,1.1953.1806,1.7916.2807,1.4368.2412,2.8657.5231,4.2892.8328,3.0594.6654,6.6342-.9131,7.3807-4.1907.69-3.0268-.9107-6.6672-4.1906-7.3807Z" transform="translate(-8.707)"/><path d="M507.1686,179.6888c-6.4174-1.3946-13.1817-2.3309-19.7465-1.5456-5.3329.6379-10.708,2.0173-15.0793,5.2916a25.4852,25.4852,0,0,0-9.0219,12.3208,32.1629,32.1629,0,0,0-1.2534,14.2577,79.0664,79.0664,0,0,0,14.77,37.1578,87.2333,87.2333,0,0,0,10.5666,12.0264A111.4705,111.4705,0,0,0,500.66,269.5019c12.0947,8.2769,25.5069,14.4085,40.2732,15.468,1.6267.1168,3.2565.1631,4.8871.158a6,6,0,0,0,0-12c-1.5065.0047-3.0121-.0338-4.5155-.1324q-1.1115-.073-2.22-.1867c-.3677-.0377-.7344-.0832-1.1017-.1235q-.9817-.1242.4981.0707-.3646-.0513-.7287-.107a60.5473,60.5473,0,0,1-8.99-2.0983q-2.1651-.681-4.28-1.5108c-.3581-.14-.7135-.2866-1.0707-.4291-1.2773-.5094,1.2657.5657.0039.0008-.8395-.3759-1.6792-.749-2.5093-1.1456a96.28,96.28,0,0,1-9.1127-5.0141c-3.2653-2.019-6.4311-4.1967-9.525-6.4688q-.9919-.7286-1.9748-1.47c-1.218-.9222,1.1662.927.1769.1386-.7-.5582-1.3956-1.1223-2.0772-1.7036a77.7683,77.7683,0,0,1-9.1091-9.2082q-.5771-.6882-1.1383-1.3891c-.19-.2377-.3727-.4836-.5677-.7174,1.1994,1.4381.4369.5682.1839.234q-1.2523-1.6545-2.416-3.3736a76.1728,76.1728,0,0,1-4.3667-7.2953q-.9182-1.75-1.7427-3.5472-.2294-.5-.4511-1.0032c-.19-.43-.3906-1.4849.0211.0717-.2185-.826-.6681-1.6458-.9693-2.4485a72.8826,72.8826,0,0,1-2.827-9.4291q-.5544-2.4361-.9422-4.9064c-.07-.4456-.2043-1.8279.0334.35-.03-.2725-.068-.5441-.0976-.8167q-.1015-.9346-.1555-1.8736c-.0584-1.0321-.0711-2.067-.03-3.1q.03-.7476.0979-1.4929c.0225-.2441.0548-.4873.0773-.7313.0925-1.0016-.3081,1.8073-.0433.3994a28.0186,28.0186,0,0,1,.6268-2.7445q.1936-.6577.4286-1.3024c.0767-.21.1792-.4193.2433-.6328-.5808,1.9334-.4062.9365-.1564.4065a18.8039,18.8039,0,0,1,1.1771-2.1306c.237-.37.5226-.7124.753-1.0844-1.1594,1.8724-.2685.3557.1884-.142q.5263-.5733,1.1014-1.0994c.5083-.4653,2.0283-1.3241.1772-.2142.9406-.564,1.7969-1.2282,2.7787-1.7363.5284-.2735,2.49-1.0053.3522-.219.5609-.2063,1.1123-.43,1.6812-.6159A28.3019,28.3019,0,0,1,487,190.2315c.283-.0515.5672-.0947.8507-.143,1.0352-.1765-1.7226.1972-.131.02q1.0706-.119,2.1468-.176a45.7153,45.7153,0,0,1,4.6358-.0063q1.247.0589,2.49.176.5518.0513,1.1026.113.3736.0419.7468.0881.9826.126-.457-.0629a15.2919,15.2919,0,0,0,2.7385.4445c.9554.1739,1.9065.3686,2.8554.5748,3.0594.6649,6.6341-.9127,7.3807-4.1906.6893-3.0264-.9106-6.668-4.1906-7.3807Z" transform="translate(-8.707)"/><path d="M555.6691,78.7984c-2.83,1.0108-4.8581,3.1373-7.325,4.7474a18.0021,18.0021,0,0,1-8.5132,2.8891,1.5367,1.5367,0,0,0-1.5,1.5,1.5124,1.5124,0,0,0,1.5,1.5,21.2907,21.2907,0,0,0,9.3082-2.8518c2.5047-1.48,4.55-3.9,7.3275-4.8919a1.5385,1.5385,0,0,0,1.0477-1.8452,1.5132,1.5132,0,0,0-1.8452-1.0476Z" transform="translate(-8.707)"/><path class="cls-1" d="M488.8634,163.1959s6.8667,1.25,8.6868.89c3.3031-.6526,7.7272-3.4682,6.0609-8.34s6.2906.0333,6.2906.0333l10.2774,30.8525-5.4922.6517s-2.4055-6.7753-7.18-7.7919a102.1481,102.1481,0,0,0-10.1506-1.3712Z" transform="translate(-8.707)"/><path class="cls-1" d="M539.7637,284.8276s8.0634.5826,10.21.3128c1.5094-.19,5.7617-1.9232,2.8018-7.4415s6.8441-1.6638,6.8441-1.6638l17.9067,25.4222-2.4093,5.2139-1.0067,1.3079a18.081,18.081,0,0,0-11.5145-4.7452c-7.1891-.2871-8.7186-.4885-8.7186-.4885Z" transform="translate(-8.707)"/></g></g></svg>