<svg xmlns="http://www.w3.org/2000/svg" viewBox="0 0 2344.589 367.6447"><defs><style>.cls-1{fill:#fff;}</style></defs><title>logo-vertical</title><g id="Ebene_2" data-name="Ebene 2"><g id="Ebene_1-2" data-name="Ebene 1"><path d="M845.5163,112.6483a12.9317,12.9317,0,0,1,7.4228,9.9776A15.0022,15.0022,0,0,1,849.41,135.037a11.0689,11.0689,0,0,1-8.1528,4.8672,18.8885,18.8885,0,0,1-10.0991-1.9473,62.7381,62.7381,0,0,0-12.29-4.1367,61.003,61.003,0,0,0-13.5063-1.46,62.8265,62.8265,0,0,0-23.4839,4.1367A49.3029,49.3029,0,0,0,764.2345,148.3a51.05,51.05,0,0,0-11.0732,18.1308,67.7152,67.7152,0,0,0-3.772,23.1192q0,14.8461,4.2588,25.7959a50.3294,50.3294,0,0,0,11.8032,18.2519,47.4394,47.4394,0,0,0,17.7652,10.83,67.3954,67.3954,0,0,0,22.1455,3.5283,71.8282,71.8282,0,0,0,13.1416-1.2168,45.0341,45.0341,0,0,0,12.6548-4.3808,17.3186,17.3186,0,0,1,10.0991-1.7031,12.7528,12.7528,0,0,1,8.396,5.11q4.8654,6.0864,3.5288,12.5332a12.8291,12.8291,0,0,1-7.4224,9.3691A85.3943,85.3943,0,0,1,832.74,272.9a98.8407,98.8407,0,0,1-13.5064,3.164,87.3742,87.3742,0,0,1-13.8715,1.0948,98.1813,98.1813,0,0,1-33.2183-5.5977,84.0651,84.0651,0,0,1-27.9868-16.5479A76.46,76.46,0,0,1,724.81,227.6356q-7.0612-16.4268-7.0576-38.0859a90.671,90.671,0,0,1,6.4492-34.5576,80.2164,80.2164,0,0,1,18.252-27.378,84.1948,84.1948,0,0,1,27.8647-18.0078,93.2437,93.2437,0,0,1,35.0435-6.4492,90.1834,90.1834,0,0,1,20.9292,2.4336A85.1866,85.1866,0,0,1,845.5163,112.6483Z"/><path d="M991.7755,209.7489q0,19.957-8.8828,35.165a63.7547,63.7547,0,0,1-23.8491,23.7276,69.9873,69.9873,0,0,1-66.9238,0,63.7224,63.7224,0,0,1-23.8491-23.7276q-8.8866-15.2066-8.8829-35.165,0-19.9527,8.8829-35.166a64.7022,64.7022,0,0,1,23.8491-23.85,69.1265,69.1265,0,0,1,66.9238,0,64.7355,64.7355,0,0,1,23.8491,23.85Q991.7733,189.7953,991.7755,209.7489Zm-29.2031,0q0-12.4116-4.9888-21.5381a37.1413,37.1413,0,0,0-13.3847-14.2363,36.4665,36.4665,0,0,0-37.2344,0A37.1162,37.1162,0,0,0,893.58,188.2108q-4.9906,9.126-4.9887,21.5381a43.6837,43.6837,0,0,0,4.9887,21.2939,37.1172,37.1172,0,0,0,13.3848,14.2364,36.4671,36.4671,0,0,0,37.2344,0,37.1423,37.1423,0,0,0,13.3847-14.2364A43.726,43.726,0,0,0,962.5724,209.7489Z"/><path d="M1073.5441,146.9618a13.4435,13.4435,0,0,1,9.7344,3.7715,13.8134,13.8134,0,0,1,0,19.2256,13.4246,13.4246,0,0,1-9.7344,3.7724h-64.4907a13.4187,13.4187,0,0,1-9.7344-3.7724,13.8132,13.8132,0,0,1,0-19.2256,13.4376,13.4376,0,0,1,9.7344-3.7715ZM1070.8668,94.64a37.91,37.91,0,0,1,10.4644,1.46,19.9225,19.9225,0,0,1,8.5176,4.7451,11.4638,11.4638,0,0,1,3.4072,8.64q0,6.0864-3.5288,9.6123a11.1943,11.1943,0,0,1-8.1523,3.5293,29.9414,29.9414,0,0,1-6.5708-1.0957,35.0988,35.0988,0,0,0-8.5176-1.0948q-6.0858,0-9.3692,2.6768a13.7878,13.7878,0,0,0-4.5024,6.206,19.3483,19.3483,0,0,0-1.2168,6.2051V259.8807a14.591,14.591,0,0,1-4.1372,10.586,14.9854,14.9854,0,0,1-20.9287,0,14.5748,14.5748,0,0,1-4.1372-10.586V135.7675a39.3061,39.3061,0,0,1,12.1679-29.2032Q1046.5293,94.6435,1070.8668,94.64Zm104.1582,52.3223a13.4432,13.4432,0,0,1,9.7344,3.7715,13.8132,13.8132,0,0,1,0,19.2256,13.4242,13.4242,0,0,1-9.7344,3.7724h-64.4907a13.4187,13.4187,0,0,1-9.7343-3.7724,13.8132,13.8132,0,0,1,0-19.2256,13.4376,13.4376,0,0,1,9.7343-3.7715ZM1172.3478,94.64a37.91,37.91,0,0,1,10.4644,1.46,19.9191,19.9191,0,0,1,8.5175,4.7451,11.4638,11.4638,0,0,1,3.4073,8.64q0,6.0864-3.5288,9.6123a11.1945,11.1945,0,0,1-8.1524,3.5293,29.9423,29.9423,0,0,1-6.5708-1.0957,35.0975,35.0975,0,0,0-8.5176-1.0948q-6.0856,0-9.3691,2.6768a13.787,13.787,0,0,0-4.5024,6.206,19.3483,19.3483,0,0,0-1.2168,6.2051V259.8807a14.5907,14.5907,0,0,1-4.1373,10.586,14.9854,14.9854,0,0,1-20.9287,0,14.5752,14.5752,0,0,1-4.1372-10.586V135.7675a39.3058,39.3058,0,0,1,12.168-29.2032Q1148.01,94.6435,1172.3478,94.64Z"/><path d="M1259.7135,277.1591q-20.6873,0-35.8955-8.64a59.6231,59.6231,0,0,1-23.3628-23.4834q-8.1562-14.8417-8.1523-33.584,0-21.9022,8.8828-37.3554a62.8155,62.8155,0,0,1,23.2407-23.7276,60.0078,60.0078,0,0,1,30.42-8.2744,55.3811,55.3811,0,0,1,23.4844,5.11,64.2794,64.2794,0,0,1,19.59,13.9931,68.1017,68.1017,0,0,1,13.5064,20.5645,62.5793,62.5793,0,0,1,4.9888,24.8222,12.5022,12.5022,0,0,1-4.6236,9.4912,15.4824,15.4824,0,0,1-10.2212,3.65h-92.9633l-7.3008-24.3359h89.313l-5.354,4.8672v-6.5713a22.2344,22.2344,0,0,0-4.9888-12.6543,32.63,32.63,0,0,0-11.1948-8.8828,31.896,31.896,0,0,0-14.2364-3.2852,46.1763,46.1763,0,0,0-13.6279,1.9463,26.1309,26.1309,0,0,0-10.9517,6.5713,31.8818,31.8818,0,0,0-7.3007,12.4111q-2.6806,7.7916-2.6768,19.712,0,13.1426,5.4756,22.2675a37.4188,37.4188,0,0,0,32.4888,18.6172,56.5745,56.5745,0,0,0,14.3579-1.46,32.25,32.25,0,0,0,8.6391-3.5293q3.2857-2.064,5.9624-3.5284a18.5663,18.5663,0,0,1,8.2745-2.19,12.2571,12.2571,0,0,1,12.4111,12.168q0,6.5712-6.814,11.9248-6.331,5.3555-17.7651,9.3691A70.7786,70.7786,0,0,1,1259.7135,277.1591Z"/><path d="M1400.859,277.1591q-20.6872,0-35.8955-8.64a59.6231,59.6231,0,0,1-23.3628-23.4834q-8.1562-14.8417-8.1523-33.584,0-21.9022,8.8828-37.3554a62.8155,62.8155,0,0,1,23.2407-23.7276,60.0078,60.0078,0,0,1,30.42-8.2744,55.3808,55.3808,0,0,1,23.4844,5.11,64.281,64.281,0,0,1,19.59,13.9931,68.1014,68.1014,0,0,1,13.5063,20.5645,62.5793,62.5793,0,0,1,4.9888,24.8222,12.5018,12.5018,0,0,1-4.6236,9.4912,15.4824,15.4824,0,0,1-10.2212,3.65h-92.9633l-7.3008-24.3359h89.313l-5.354,4.8672v-6.5713a22.2344,22.2344,0,0,0-4.9888-12.6543,32.63,32.63,0,0,0-11.1948-8.8828,31.896,31.896,0,0,0-14.2364-3.2852,46.1763,46.1763,0,0,0-13.6279,1.9463,26.13,26.13,0,0,0-10.9516,6.5713,31.8808,31.8808,0,0,0-7.3008,12.4111q-2.6807,7.7916-2.6768,19.712,0,13.1426,5.4756,22.2675a37.4188,37.4188,0,0,0,32.4888,18.6172,56.5745,56.5745,0,0,0,14.3579-1.46,32.25,32.25,0,0,0,8.6391-3.5293q3.2858-2.064,5.9624-3.5284a18.5666,18.5666,0,0,1,8.2745-2.19,12.2571,12.2571,0,0,1,12.4111,12.168q0,6.5712-6.814,11.9248-6.3311,5.3555-17.7651,9.3691A70.7786,70.7786,0,0,1,1400.859,277.1591Z"/><path d="M1551.9821,104.3739q23.3628,0,34.8008,10.9512,11.436,10.9512,11.438,32.3662a36.0938,36.0938,0,0,1-5.5977,20.0771q-5.6008,8.6427-16.5483,13.3848-10.9512,4.7461-27.0127,4.7461l.9731-10.9512a84.4855,84.4855,0,0,1,17.2788,2.0684,65.0279,65.0279,0,0,1,18.86,7.3008,43.3268,43.3268,0,0,1,15.0883,14.6015q5.96,9.3722,5.962,23.9707,0,16.062-5.232,26.2832a40.51,40.51,0,0,1-13.75,15.8184,53.0125,53.0125,0,0,1-18.2519,7.666,90.0935,90.0935,0,0,1-18.7388,2.0684h-60.5967a14.5508,14.5508,0,0,1-14.8447-14.8448V119.2186a14.5508,14.5508,0,0,1,14.8447-14.8447Zm-4.38,28.7158h-43.3179l3.1636-3.8935V173.244l-2.92-2.1894h43.8047a19.34,19.34,0,0,0,12.6548-4.6241q5.5956-4.62,5.5971-13.3847,0-10.4606-5.2319-15.21Q1556.1157,133.09,1547.6017,133.09Zm1.9468,66.6807H1505.257l2.19-1.9463v51.3486l-2.4336-2.4336h46.2383q11.1906,0,17.7651-5.9619,6.5714-5.96,6.5708-17.8877,0-10.9512-4.38-15.8183a18.7948,18.7948,0,0,0-10.4644-6.084A57.5373,57.5373,0,0,0,1549.5485,199.77Z"/><path d="M1640.0778,274.7255a13.9593,13.9593,0,0,1-10.4644-4.2588,14.5752,14.5752,0,0,1-4.1372-10.586V159.3729a14.5876,14.5876,0,0,1,4.1372-10.5859,14.9854,14.9854,0,0,1,20.9287,0,14.603,14.603,0,0,1,4.1372,10.5859v22.876l-1.7036-16.3057a37.9041,37.9041,0,0,1,6.9361-10.3427,41.1779,41.1779,0,0,1,9.6128-7.544,43.6572,43.6572,0,0,1,11.4375-4.5019,51.9414,51.9414,0,0,1,12.1679-1.46,18.6211,18.6211,0,0,1,12.29,4.1367q4.9848,4.1412,4.9887,9.7344,0,8.0318-4.1372,11.56a13.5961,13.5961,0,0,1-9.0044,3.5293,20.132,20.132,0,0,1-8.396-1.7041,20.8428,20.8428,0,0,0-8.6391-1.7032,21.1971,21.1971,0,0,0-8.8823,2.0684,24.4365,24.4365,0,0,0-8.2745,6.4492,33.9189,33.9189,0,0,0-6.0839,10.8291,45.0393,45.0393,0,0,0-2.3121,15.21v57.6767a14.5906,14.5906,0,0,1-4.1372,10.586A13.97,13.97,0,0,1,1640.0778,274.7255Z"/><path d="M1780.9811,277.1591q-20.6872,0-35.8955-8.64a59.6231,59.6231,0,0,1-23.3628-23.4834q-8.1562-14.8417-8.1523-33.584,0-21.9022,8.8828-37.3554a62.8155,62.8155,0,0,1,23.2407-23.7276,60.0078,60.0078,0,0,1,30.42-8.2744,55.3814,55.3814,0,0,1,23.4844,5.11,64.2794,64.2794,0,0,1,19.59,13.9931,68.1017,68.1017,0,0,1,13.5064,20.5645,62.5792,62.5792,0,0,1,4.9887,24.8222,12.5017,12.5017,0,0,1-4.6235,9.4912,15.4824,15.4824,0,0,1-10.2212,3.65h-92.9634l-7.3007-24.3359h89.3129l-5.354,4.8672v-6.5713a22.2336,22.2336,0,0,0-4.9887-12.6543,32.6289,32.6289,0,0,0-11.1949-8.8828,31.8953,31.8953,0,0,0-14.2363-3.2852,46.1758,46.1758,0,0,0-13.6279,1.9463,26.1309,26.1309,0,0,0-10.9517,6.5713,31.8808,31.8808,0,0,0-7.3008,12.4111q-2.6807,7.7916-2.6767,19.712,0,13.1426,5.4756,22.2675a37.4188,37.4188,0,0,0,32.4887,18.6172,56.5759,56.5759,0,0,0,14.358-1.46,32.2509,32.2509,0,0,0,8.6391-3.5293q3.2856-2.064,5.9624-3.5284a18.5662,18.5662,0,0,1,8.2744-2.19,12.2571,12.2571,0,0,1,12.4112,12.168q0,6.5712-6.814,11.9248-6.3311,5.3555-17.7651,9.3691A70.7794,70.7794,0,0,1,1780.9811,277.1591Z"/><path d="M1968.3644,142.0946a14.1935,14.1935,0,0,1,10.4648,4.1367,14.4976,14.4976,0,0,1,4.1373,10.708V259.8807a14.5907,14.5907,0,0,1-4.1373,10.586,14.9861,14.9861,0,0,1-20.9292,0,14.5752,14.5752,0,0,1-4.1372-10.586V247.9559l5.354,2.19q0,3.1654-3.4067,7.666a46.3623,46.3623,0,0,1-9.248,8.8818,56.6664,56.6664,0,0,1-13.75,7.4229,47.4414,47.4414,0,0,1-17.1567,3.042,55.6259,55.6259,0,0,1-30.42-8.64,60.7076,60.7076,0,0,1-21.5371-23.8486q-7.9109-15.2066-7.9092-34.9219,0-19.9527,7.9092-35.166a61.4512,61.4512,0,0,1,21.2939-23.85,53.619,53.619,0,0,1,29.69-8.6387,56.3071,56.3071,0,0,1,19.2256,3.1631,57.5626,57.5626,0,0,1,15.21,8.0312,46.2243,46.2243,0,0,1,9.9776,9.8565q3.5251,4.9907,3.5288,8.3955l-8.7613,3.1641V156.9393a14.5876,14.5876,0,0,1,4.1372-10.5859A13.9737,13.9737,0,0,1,1968.3644,142.0946ZM1919.2062,250.39a32.9813,32.9813,0,0,0,18.7383-5.3535,36.1463,36.1463,0,0,0,12.5332-14.6016,46.6438,46.6438,0,0,0,4.5019-20.6855,47.2313,47.2313,0,0,0-4.5019-20.93,36.1966,36.1966,0,0,0-12.5332-14.6015,33.0107,33.0107,0,0,0-18.7383-5.3536,32.5846,32.5846,0,0,0-18.4956,5.3536,36.1707,36.1707,0,0,0-12.5332,14.6015,47.1779,47.1779,0,0,0-4.502,20.93,46.5906,46.5906,0,0,0,4.502,20.6855,36.1205,36.1205,0,0,0,12.5332,14.6016A32.5553,32.5553,0,0,0,1919.2062,250.39Z"/><path d="M2017.0329,274.7255a13.9591,13.9591,0,0,1-10.4644-4.2588,14.5752,14.5752,0,0,1-4.1372-10.586V109.4843a14.5864,14.5864,0,0,1,4.1372-10.586,14.9854,14.9854,0,0,1,20.9287,0,14.6018,14.6018,0,0,1,4.1372,10.586V259.8807a14.5906,14.5906,0,0,1-4.1372,10.586A13.97,13.97,0,0,1,2017.0329,274.7255Zm77.3881-130.1973a12.6921,12.6921,0,0,1,9.7344,4.624q4.1354,4.6245,4.1377,9.0039,0,5.84-5.8408,10.9512l-73.2515,67.4111-1.2168-33.584,55.73-53.7822A14.7007,14.7007,0,0,1,2094.421,144.5282Zm3.65,129.9541a13.85,13.85,0,0,1-10.707-4.8672l-45.0215-47.6982,22.1455-20.4424,43.8047,47.6982a15.5269,15.5269,0,0,1,4.624,10.9512,12.6836,12.6836,0,0,1-4.9892,10.3428Q2102.9371,274.4818,2098.0714,274.4823Z"/><path d="M2183.4875,277.1591q-20.6867,0-35.8956-8.64A59.6218,59.6218,0,0,1,2124.23,245.036q-8.1562-14.8417-8.1523-33.584,0-21.9022,8.8828-37.3554a62.8143,62.8143,0,0,1,23.24-23.7276,60.0119,60.0119,0,0,1,30.42-8.2744,55.3774,55.3774,0,0,1,23.4843,5.11,64.271,64.271,0,0,1,19.5909,13.9931,68.1309,68.1309,0,0,1,13.5068,20.5645,62.5789,62.5789,0,0,1,4.9883,24.8222,12.4976,12.4976,0,0,1-4.624,9.4912,15.4805,15.4805,0,0,1-10.2207,3.65H2132.382l-7.3008-24.3359h89.3135l-5.3535,4.8672v-6.5713a22.235,22.235,0,0,0-4.9893-12.6543,32.6323,32.6323,0,0,0-11.1943-8.8828,31.9017,31.9017,0,0,0-14.2373-3.2852,46.1765,46.1765,0,0,0-13.628,1.9463,26.1313,26.1313,0,0,0-10.9511,6.5713,31.8686,31.8686,0,0,0-7.3008,12.4111q-2.6806,7.7916-2.6768,19.712,0,13.1426,5.4756,22.2675a37.42,37.42,0,0,0,32.4883,18.6172,56.5734,56.5734,0,0,0,14.3584-1.46,32.2674,32.2674,0,0,0,8.64-3.5293q3.2857-2.064,5.962-3.5284a18.5659,18.5659,0,0,1,8.2744-2.19,12.2563,12.2563,0,0,1,12.4111,12.168q0,6.5712-6.8135,11.9248-6.3326,5.3555-17.7656,9.3691A70.7792,70.7792,0,0,1,2183.4875,277.1591Z"/><path d="M2274.258,274.7255a13.96,13.96,0,0,1-10.4649-4.2588,14.5788,14.5788,0,0,1-4.1367-10.586V159.3729a14.5912,14.5912,0,0,1,4.1367-10.5859,14.9867,14.9867,0,0,1,20.93,0,14.603,14.603,0,0,1,4.1367,10.5859v22.876l-1.7031-16.3057a37.8932,37.8932,0,0,1,6.9355-10.3427,41.198,41.198,0,0,1,9.6123-7.544,43.672,43.672,0,0,1,11.4385-4.5019,51.9334,51.9334,0,0,1,12.168-1.46,18.6183,18.6183,0,0,1,12.2891,4.1367q4.9848,4.1412,4.9892,9.7344,0,8.0318-4.1377,11.56a13.5939,13.5939,0,0,1-9.0039,3.5293,20.1248,20.1248,0,0,1-8.3955-1.7041,20.8488,20.8488,0,0,0-8.64-1.7032,21.2011,21.2011,0,0,0-8.8829,2.0684,24.4458,24.4458,0,0,0-8.2744,6.4492,33.9286,33.9286,0,0,0-6.084,10.8291,45.0675,45.0675,0,0,0-2.3115,15.21v57.6767a14.5906,14.5906,0,0,1-4.1367,10.586A13.972,13.972,0,0,1,2274.258,274.7255Z"/><path class="cls-1" d="M392.9526,358.6871c10.3421,2.0543,27.2769,6.0734,49.9541-1.2661,29.6777-9.6053,64.5411-42.1,82.3878-103.8021,8.52-29.4578,20.7334-78.237,29.0452-120.6142,5.9041-31.75-73.0345-53.5018-96.81-59.3507-23.9749-4.9694-104.58-19.364-112.937,11.8306-10.7642,41.8215-20.7674,91.1014-25.7752,121.355-10.49,63.3693,6.9647,107.7166,29.6046,129.175C365.7215,352.4112,382.735,356.0834,392.9526,358.6871Z"/><path d="M391.3576,364.4728a151.2615,151.2615,0,0,0,20.1787,3.0126,89.1922,89.1922,0,0,0,28.1943-2.875A94.5129,94.5129,0,0,0,472.7272,348.16a142.4768,142.4768,0,0,0,30.078-31.7838c10.1674-14.5,17.8861-30.6414,23.8142-47.2967,5.75-16.1547,9.8686-32.96,14.1222-49.5568q7.3293-28.5985,13.6634-57.442,1.6237-7.4146,3.1684-14.8466c.9217-4.4413,1.9722-8.8943,2.6745-13.3761a26.3341,26.3341,0,0,0-2.5843-16.0856c-4.9247-9.9725-15.058-17.0848-24.394-22.5341C521.909,88.6066,509.5822,83.5835,497.2089,79.19c-10.4409-3.7073-21.0639-6.9047-31.7791-9.7179-8.1793-2.1474-16.4843-3.6676-24.83-5.0171A341.8235,341.8235,0,0,0,403.0682,60.26c-12.3615-.6145-25.0627-.4451-37.18,2.335-9.7372,2.2341-20.4343,6.9554-25.1531,16.37a48.55,48.55,0,0,0-3.259,10.15q-1.8322,7.2633-3.5765,14.5484-3.5163,14.6634-6.7388,29.3954-5.983,27.2639-11.0671,54.7174c-3.34,18.2005-6.347,36.4482-6.3992,55.0068a170.543,170.543,0,0,0,6.9653,50.2835c3.9366,12.8491,9.6865,25.3963,17.8269,36.1433a91.5873,91.5873,0,0,0,39.2555,29.9235,141.0009,141.0009,0,0,0,17.6157,5.34c3.0374.7726,6.6514-.9887,7.3807-4.1906a6.1024,6.1024,0,0,0-4.1907-7.3807,139.2088,139.2088,0,0,1-17.9751-5.4845c-.1807-.073-.3609-.1474-.5415-.2206-.9623-.39.22.085.34.146-.4161-.2109-.8648-.3748-1.29-.5654q-1.42-.6363-2.816-1.325-2.8665-1.4157-5.6164-3.0528-2.9743-1.7709-5.7929-3.7874-.7146-.5109-1.4182-1.0369c-.136-.1016-.9918-.7482-.41-.3037.54.4127-.1433-.1132-.208-.1647-1.11-.884-2.2053-1.7856-3.2757-2.7176a81.7834,81.7834,0,0,1-7.0235-6.8692q-1.3635-1.5106-2.65-3.0884c-.4239-.5191-.8329-1.05-1.253-1.5716-.3958-.4919.565.7379.4951.6405-.1129-.1574-.2359-.3093-.3527-.464q-.3534-.468-.7006-.9407a101.5788,101.5788,0,0,1-9.4041-15.6836q-1.07-2.1966-2.0455-4.4376c-.11-.2523-.6325-1.48-.2387-.5461s-.1245-.3057-.229-.5614q-.497-1.2156-.9676-2.4415-1.9218-5.0038-3.4251-10.1553-1.5709-5.36-2.7178-10.8329-.6011-2.8536-1.094-5.7285-.2434-1.4175-.4612-2.8392-.11-.7182-.2138-1.4374c-.04-.2755-.0781-.5512-.1171-.8268-.1138-.8043-.035.0155.0458.3475a44.08,44.08,0,0,1-.6929-6.1526q-.3-3.1728-.4849-6.3549-.3959-6.7658-.3051-13.5482.0865-7.0666.6533-14.1163.2921-3.6808.7043-7.3508.2031-1.81.4342-3.6179.0666-.5211.1355-1.0419c-.0109.0833-.1395.9959-.0376.2874.1135-.7892.2215-1.5791.3381-2.3678,2.4258-16.4084,5.7093-32.7232,9.0009-48.9753q5.7792-28.5344,12.5335-56.8617,1.6892-7.0444,3.4559-14.07c.53-2.1027.9954-4.24,1.6265-6.3143.1421-.4673.3239-.9182.48-1.38.2657-.7882-.7465,1.58-.244.5795.1223-.2436.2305-.4942.3541-.7374a21.13,21.13,0,0,1,1.54-2.5065c.6278-.9-.5423.6542-.3809.4887.1647-.1687.3034-.37.4582-.5479q.5054-.5826,1.0544-1.1254.5183-.5139,1.07-.992c.186-.1615.3773-.3162.5651-.4754.9524-.8069-.9691.6951-.3726.2829.9065-.6263,1.8-1.252,2.7563-1.8029.965-.5559,1.96-1.0595,2.974-1.5193.2518-.1142.5114-.2155.76-.3352-.4945.2376-1.4476.5959-.432.1919q.8558-.34,1.7248-.6454a58.9271,58.9271,0,0,1,7.2734-2.0111q1.9662-.4192,3.9524-.7359c.6566-.1058,1.3149-.1988,1.9729-.2955.7314-.1074-1.474.1859-.7376.0992.1439-.0169.2875-.0371.4312-.0551q.5787-.0726,1.1583-.1385c2.944-.3355,5.9012-.5487,8.8613-.6743a231.6987,231.6987,0,0,1,36.9889,1.8232q2.2064.2612,4.4093.55c.3488.0456.6975.093,1.0463.1384-2.0286-.2644-.7319-.098-.2613-.0334q1.0968.1508,2.1927.3078,4.1028.5877,8.1928,1.26,6.789,1.1133,13.54,2.4426c8.4027,1.6541,16.6783,4.0424,24.8752,6.5053q8.5426,2.5668,16.96,5.5282,4.4321,1.5687,8.8148,3.2725,2.212.8624,4.4084,1.7644.53.2181,1.06.4384c.2014.0839.4018.1722.6044.2528.0793.0315-1.279-.5444-.6792-.2867.751.3227,1.5034.642,2.2525.9692a165.1142,165.1142,0,0,1,16.64,8.3046c2.4794,1.4348,4.9109,2.9548,7.2634,4.59q.8158.5671,1.6182,1.1534.3954.2892.7873.5832c.1481.1112.2947.2244.4431.3352.6368.4758-.4948-.3766-.5592-.4327,1.0118.8811,2.0923,1.6821,3.0971,2.5747a45.951,45.951,0,0,1,5.051,5.1972c.1812.2211.8276,1.0522.12.1321-.7064-.9184-.0742-.0921.094.1371q.5073.6918.977,1.41a26.862,26.862,0,0,1,1.5927,2.7784c.1113.2254.2146.4542.323.6809.47.9828-.1031-.1388-.2252-.5521.1578.5342.4027,1.0493.5714,1.5824.3049.9638.4485,1.9434.6853,2.92.0614.253-.1865-1.8181-.0966-.6756.0189.24.0439.479.0589.7194q.0485.7761.03,1.5543c-.0116.4908-.0531.9774-.0941,1.4662-.0973,1.1619.1938-1.08.09-.6447-.0979.41-.1507.8371-.2322,1.2509-3.7852,19.23-8.0525,38.3656-12.6118,57.4262-4.1433,17.3214-8.5227,34.5906-13.2671,51.7576-2.2384,8.0994-4.52,16.1883-7.322,24.1145q-1.2056,3.41-2.5192,6.78-.6006,1.5393-1.2242,3.0694-.2647.6495-.5338,1.2971c-.1189.2863-.2365.5737-.3589.8586.3091-.72.24-.5676-.0289.0575q-2.5678,5.9775-5.5152,11.7823A174.7541,174.7541,0,0,1,492.6671,310q-1.5971,2.2894-3.2747,4.5212c-.2655.353-.5336.7038-.8008,1.0554-.6417.8445.8159-1.0326-.0972.1219-.576.7283-1.1523,1.4562-1.7389,2.1761q-3.2863,4.0335-6.8634,7.8182-3.443,3.6345-7.1605,6.9953-1.7523,1.58-3.5658,3.09-.8575.7137-1.729,1.4106c-.2875.23-.577.4573-.866.6854-1.0031.7919.993-.7465-.0241.0184a102.632,102.632,0,0,1-14.5075,9.2361q-1.7625.9114-3.5653,1.7417c-.5679.2613-1.14.5124-1.7118.7646-1.0852.4786,1.2318-.5.3367-.1394-.3245.1309-.647.2666-.9719.3966a82.7569,82.7569,0,0,1-9.5864,3.1472q-3.7392.99-7.5563,1.6461-.7246.1238-1.4513.2348c-.3108.0475-.6406.1149-.9563.1405.195-.0158,1.3088-.16.1773-.0271-1.15.1352-2.3006.2587-3.455.3516a83.081,83.081,0,0,1-12.1491.0758q-2.5879-.1716-5.1631-.4917c-.1753-.0217-.3505-.0446-.5259-.0661-1.0134-.1244.4842.0615.56.0757-.39-.0731-.788-.112-1.18-.171q-1.1382-.171-2.2726-.3648c-2.6844-.4569-5.35-1.01-8.02-1.5413-3.069-.6111-6.6255.8749-7.3807,4.1906C386.4881,360.0723,388.0659,363.8174,391.3576,364.4728Z"/><path d="M511.39,115.17a54.4165,54.4165,0,0,1,6.0793,3.02c1.0481.6072,2.0749,1.252,3.0687,1.9449.2663.1857,1.6254,1.236.7459.5244.5217.4221,1.038.8487,1.5319,1.3034.3969.3654.782.7437,1.15,1.1382q.2147.23.4216.4675l.2018.2362q.4623.57-.1367-.1927c.2875.1025.6587.9705.8045,1.2262.0933.1637.1728.3373.2679.5.3938.6731-.3058-.98.0676.1961.054.17.1029.3428.1448.5162.1912.7914-.213.4022.0108-.1522a2.7757,2.7757,0,0,0,.0235.5274c.003.86-.28.2517.0753-.1323-.0953.1029-.1217.5113-.1626.6441-.0318.1036-.0777.2064-.1045.311-.1888.74.5588-1.0877.2286-.5329-.2151.3615-.4884.747-.67,1.1223.5682-1.1719.5912-.726.193-.29-.1863.2037-.3838.3972-.5892.5817-.422.379-.9508.436.2456-.16a6.9449,6.9449,0,0,0-.6106.4249,13.823,13.823,0,0,1-1.5163.8466c-.3989.1928-1.3652.4774.1519-.0414-.2759.0944-.5442.2175-.8187.3176-.6416.2337-1.2941.437-1.9524.618a37.8,37.8,0,0,1-4.258.8886,5.0014,5.0014,0,0,0-.66.0973c1.0528-.32.9085-.1147.5237-.07-.4213.0484-.8418.1026-1.2636.1473q-1.317.14-2.6388.2272c-1.7988.1217-3.6016.1816-5.4043.1991-4.0141.0391-8.0292-.1284-12.033-.408-4.2207-.2947-8.4319-.7187-12.6319-1.227q-1.5131-.1831-3.0241-.3809a5.529,5.529,0,0,1-.9045-.12c.0905.0288,1.0992.15.2937.039q-.8994-.124-1.7986-.25-3.1-.4389-6.1931-.93a357.6894,357.6894,0,0,1-41.2894-9.0182c-8.3365-2.3529-16.6159-4.9384-24.747-7.9289q-3.0086-1.1065-5.9849-2.2978a25.0622,25.0622,0,0,1-2.7563-1.1329c1.1815.6507-.2623-.1158-.5424-.2372q-.7953-.345-1.5866-.6989a100.1793,100.1793,0,0,1-10.0182-5.09c-1.4028-.8278-2.7788-1.7038-4.1028-2.6533-.3212-.23-.6346-.471-.9534-.7045-.4591-.3362.9462.7589.3317.2535-.1321-.1087-.2671-.214-.3995-.3224-.556-.4557-1.0976-.9293-1.6171-1.4262-.4583-.4384-.9006-.8938-1.3176-1.3718-.1858-.213-.35-.4528-.5452-.6563-.0262-.0274.7235,1.0283.4028.5161-.1133-.1809-.2513-.3491-.37-.5272-.2841-.4274-.515-.8737-.7619-1.3218-.4519-.82.3928,1.1761.1117.28-.0836-.2664-.1823-.5256-.2522-.7968-.0554-.2148-.0683-.4576-.14-.6648.4227,1.2283.1066,1.0569.08.3978-.0088-.2224.0112-.4439.0073-.6657-.0139-.8-.3287,1.3456-.0338.264.0233-.0854.0438-.179.0618-.2664.1733-.8413.3578-.051-.1138.1661.0212-.01.6038-1.0261.6013-1.0356.0834.327-.7379.8069-.1743.25.1456-.1437.279-.2994.4269-.4416a4.1071,4.1071,0,0,0,.5648-.496c-.25.3769-.7462.5373-.0766.0967a12.8548,12.8548,0,0,1,1.1595-.6748c.1007-.0521.7181-.2713.751-.3621-.0186.0513-1.0562.4065-.2874.1223a27.6749,27.6749,0,0,1,3.1367-.9705q.7545-.1814,1.5177-.3244a4.9586,4.9586,0,0,1,1.5494-.2588l-.5718.0746q.3125-.0408.6255-.0769t.6252-.0679q.93-.0945,1.8626-.1526a54.8829,54.8829,0,0,1,5.96-.046,4.5321,4.5321,0,0,0,4.5-4.5,4.5971,4.5971,0,0,0-4.5-4.5,49.6466,49.6466,0,0,0-14.2592,1.2467c-4.9384,1.2425-9.8487,3.8657-11.7332,8.8694-2.3227,6.167,2.1067,12.1962,6.6834,15.8781,6.4308,5.1734,13.9781,8.646,21.55,11.8023a268.6331,268.6331,0,0,0,25.6876,9.0122,360.0009,360.0009,0,0,0,43.7,10.34c9.0563,1.545,18.1722,2.8392,27.3249,3.6545,8.0667.7186,16.2892,1.1737,24.363.3018,5.8978-.637,13.1707-1.7717,17.2607-6.58a11.18,11.18,0,0,0,1.5707-12.3055c-2.1584-4.7732-6.9831-8.233-11.3707-10.7958a54.269,54.269,0,0,0-6.2277-3.1064c-2.1613-.9145-4.9226-.7218-6.1569,1.6144-1.0176,1.9259-.7,5.1774,1.6144,6.1568Z"/><path d="M390.9542,110.7154c6.0057,2.461,11.9428,5.0849,17.9535,7.5339a121.2966,121.2966,0,0,0,17.888,5.55c6.0523,1.4391,11.9338,3.462,17.9555,5.0069.2279.0584.4577.1089.6858.1665a4.5613,4.5613,0,0,1,1.09.09c12.5279,2.5633,25.3905,4.3559,38.0451,6.2074a88.9986,88.9986,0,0,0,19.6193.3934c3.0674-.2121,6.1121.1708,9.1792.2321.81.0162,1.78.0945,2.7762.13,1.51-.2291,3.0024-.51,4.479-.8324-9.4821-12.219-36.1261-25.36-69.0443-32.8177-32.8618-7.4452-62.51-7.08-76.3633-.1752C379.8186,106.1777,385.2874,108.3934,390.9542,110.7154Z"/><path d="M546.5909,183.512c2.23-.7355,4.4874-1.3819,6.779-1.8948q1.6087-.36,3.235-.6343c.2148-.036,1.9649-.2573.8725-.1465-.9661.0979-.1251.0176.1184-.0116q.4527-.0543.9064-.1013a48.76,48.76,0,0,1,5.9183-.2545q1.4007.0276,2.7975.1444c.4271.036.8526.0828,1.2788.1276.2575.0271,1.0187.1263-.0112-.0075-1.148-.1491.048.015.2887.0545a37.1236,37.1236,0,0,1,5.005,1.1763q1.1123.3457,2.2.7651c.1786.069.3551.1437.5341.2115.719.2722-1.4985-.6675-.5135-.2161.3855.1767.7721.3494,1.1534.5351a32.4391,32.4391,0,0,1,4.0648,2.3572c.3.2044.593.4172.8884.6279,1.0337.7377-1.1734-.95-.0355-.0317q.8881.7165,1.7233,1.4956a35.2248,35.2248,0,0,1,3.0852,3.31c.8035.9692-.9068-1.2264-.0443-.06q.3156.427.6176.8639.68.9836,1.2891,2.0136.5426.9168,1.0281,1.8658a7.1787,7.1787,0,0,1,1.0232,2.1773c.0008.0263-.6225-1.54-.2955-.69.0643.1671.1328.3327.1974.5q.1941.5022.3735,1.01.4056,1.1473.7362,2.32a39.1513,39.1513,0,0,1,.9922,4.5364,2.3659,2.3659,0,0,1,.0822.545c-.01.0227-.2077-1.7043-.1049-.7735.0406.3674.0852.7341.12,1.1021q.1191,1.25.1623,2.5047a54.0452,54.0452,0,0,1-.141,5.54q-.1155,1.697-.2932,3.3891c-.0584.5557-.1269,1.11-.19,1.6651-.1225,1.08.0292-.2122.0537-.3592-.0677.406-.1148.8175-.1759,1.2246a92.4371,92.4371,0,0,1-2.9539,13.09q-.9189,3.0292-2.04,5.9922c-.3416.9022-.7025,1.7961-1.0651,2.69-.3781.9321.1455-.36.19-.4461-.1344.26-.2343.5449-.3518.8135q-.3171.7245-.646,1.4438a100.06,100.06,0,0,1-11.1221,18.6091c-.1383.1833-1.0188,1.3335-.2923.3887.7239-.9415-.1465.181-.29.3613q-.7411.9339-1.5042,1.85-1.3487,1.6188-2.7653,3.1794-2.4591,2.7071-5.1281,5.211-2.997,2.805-6.1551,5.4312-1.5077,1.2524-3.0513,2.46c-.2275.179-.8508.7355.1424-.1094-.2245.1909-.4789.3648-.7131.5413q-.7948.5992-1.6,1.1856a118.2941,118.2941,0,0,1-11.9989,7.702q-2.8061,1.5674-5.7,2.97-1.3036.632-2.624,1.2285-.6464.2924-1.2968.5759c-.2146.0936-.43.1854-.6445.2787-1.1775.5119,1.3332-.5438.1523-.0658-3.4173,1.3832-6.8774,2.6352-10.413,3.6836a122.1867,122.1867,0,0,1-17.6731,3.7368c-.76.1074,1.79-.232.4935-.0674-.2865.0364-.5729.0737-.8594.1095q-.93.1161-1.8613.2234a6.54,6.54,0,0,0-4.2426,1.7573,6.0972,6.0972,0,0,0-1.7574,4.2427c.1317,2.9406,2.6609,6.3873,6,6a145.4277,145.4277,0,0,0,18.52-3.1836,115.03,115.03,0,0,0,22.9253-8.4815,126.3967,126.3967,0,0,0,25.4076-16.9049A106.06,106.06,0,0,0,581.47,272.76c10.5286-12.9454,18.2784-28.1708,21.602-44.587,1.7868-8.8258,2.7694-17.9769,1.11-26.8921a41.8655,41.8655,0,0,0-9.24-19.26,38.4876,38.4876,0,0,0-18.3954-11.7575c-8.4874-2.5232-17.6049-2.1526-26.1731-.2607a71.4123,71.4123,0,0,0-6.9721,1.9375c-2.9751.9815-5.2232,4.19-4.1906,7.3807.96,2.9671,4.1891,5.2435,7.3807,4.1906Z"/><path d="M542.5416,206.5474a58.2351,58.2351,0,0,1,8.0578-2.0912c.5132-.0909,2.5341-.23.5-.1061.5584-.0339,1.1169-.1306,1.6752-.177,1.0506-.0872,2.1053-.13,3.1595-.1157.9763.0129,1.9345.12,2.9058.1906-2.1793-.1579-.5265-.0667.0271.0413q.7719.1506,1.5315.358.6093.1674,1.207.3743c.1558.0541.3094.1148.4653.1687.5725.1979.9235.6629-.5329-.2357.6628.4089,1.4109.6844,2.0762,1.1038.3188.2009.6163.4638.9445.6454-1.7067-.9442-.67-.5356-.1629-.0846.6195.5512,1.1277,1.183,1.696,1.78-1.3886-1.4584-.5015-.67-.1391-.1317q.316.4689.5982.96.2856.4956.5368,1.01c.0675.1379.1272.2815.1975.4178.4557.8828-.6078-1.5962-.1964-.4651.26.7153.5067,1.4284.7006,2.1654q.1572.5975.28,1.2032c.1132.554.31,2.4687.0761.1589a36.6954,36.6954,0,0,1,.158,5.7825c-.0749,1.344-.21,2.6788-.3549,4.0166-.1574,1.4535.2277-1.3863-.0078.0457-.0442.2693-.0824.54-.1262.8091q-.1943,1.1952-.4366,2.382a61.3425,61.3425,0,0,1-2.074,7.6181c-.3756,1.0967-.7953,2.1735-1.2163,3.2531-.4747,1.217.5738-1.305.053-.1171-.0945.2155-.188.4313-.2838.6462q-.4247.9522-.88,1.89a65.2468,65.2468,0,0,1-3.2583,5.907q-1.6112,2.5958-3.4556,5.0363c-.9333,1.2348.87-1.0955-.0745.0915q-.4128.5187-.8359,1.0291-.8373,1.01-1.715,1.9848a90.6309,90.6309,0,0,1-9.5958,8.959q-.9289.7706-1.8743,1.5209c-.313.2481-1.4258.818-.1387.1157a9.8156,9.8156,0,0,0-1.01.7618q-1.8835,1.401-3.8439,2.6946a63.23,63.23,0,0,1-7.6534,4.3355c-.5963.2825-1.28.4927-1.8438.8324,1.3786-.8311.536-.2272.0851-.0485q-.506.2-1.0161.39-1.9445.7233-3.944,1.2845t-4.044.9535c-.7176.138-1.4382.2511-2.1595.3675-.4356.07-.98-.04.5007-.0636-.485.0076-.992.1172-1.4755.1668a6.4908,6.4908,0,0,0-4.2426,1.7574,6.0968,6.0968,0,0,0-1.7574,4.2426c.1333,2.9759,2.6563,6.3434,6,6a60.1751,60.1751,0,0,0,17.7735-4.5459,68.4718,68.4718,0,0,0,14.519-8.6389c8.02-6.1061,15.277-12.82,20.9088-21.2256a69.32,69.32,0,0,0,11.2621-31.6863c.8662-8.6186-.489-18.521-7.5473-24.4262-9.37-7.8389-22.32-6.4467-33.1884-2.864-2.9754.9808-5.223,4.1906-4.1907,7.3807.96,2.9677,4.189,5.2428,7.3807,4.1907Z"/><path d="M489.2153,118.9271c2.4191.59,4.3134,2.3931,6.5528,3.4055a18.1214,18.1214,0,0,0,8.0559,1.6322c1.9258-.0611,1.9343-3.0613,0-3a14.833,14.833,0,0,1-7.2179-1.5477c-2.213-1.1286-4.1309-2.7824-6.5933-3.3829-1.8752-.4573-2.6753,2.435-.7975,2.8929Z"/><path class="cls-1" d="M552.9189,180.7234s-5.6141,1.645-7.1628,1.5051c-2.8107-.2538-6.7457-2.2123-5.7847-6.4193s-5.2406.58-5.2406.58l-5.8572,26.62,4.6354.0608s1.41-5.859,5.3-7.1256a85.621,85.621,0,0,1,8.3408-2.0345Z"/><path class="cls-1" d="M521.1728,286.582a84.8683,84.8683,0,0,1-8.4835,1.1576c-1.2749-.0255-4.9717-1.0971-2.9891-5.957s-5.8511-.7858-5.8511-.7858l-12.6936,22.7639,2.4662,4.1345.954,1.0018a15.1555,15.1555,0,0,1,9.1813-4.9668c5.9674-.8707,7.2247-1.1729,7.2247-1.1729Z"/><path class="cls-1" d="M269.2815,354.35c-12.014,3.73-31.6046,10.616-59.4285,4.7427-36.4131-7.6865-81.8406-41.8822-110.7292-112.8607-13.792-33.8863-34.3807-90.2357-49.54-139.4768C38.609,69.8225,129.55,34.1458,157.0282,24.2338,184.853,15.34,278.6912-11.8154,292.506,24.152c18,48.2752,36.0293,105.4948,45.7532,140.7644,20.3679,73.876,5.2026,128.6757-18.9769,156.9662C300.8063,343.5,281.0791,349.9837,269.2815,354.35Z"/><path d="M267.6864,348.5647a169.0417,169.0417,0,0,1-21.0806,5.5373c-1.0531.1838-2.11.3374-3.1661.5019-.6943.1081.392-.05.4308-.0551-.3149.0388-.6294.0806-.9445.1187q-.9606.1159-1.9233.2133-3.6686.3713-7.3581.4634-4.1267.1033-8.2518-.1413-2.0408-.12-4.0755-.3237c-.6979-.07-1.3944-.15-2.0912-.23-.0169-.002-1.01-.1243-.4153-.048.6329.0813-.906-.1305-1.04-.1507a99.2212,99.2212,0,0,1-20.73-5.4331q-1.0714-.41-2.1338-.843a11.229,11.229,0,0,0-1.071-.443c-.07-.02,1.2593.5466.6666.2794-.2541-.1147-.5124-.2208-.7678-.3327q-2.2606-.9894-4.4767-2.0769-4.7045-2.3055-9.1994-5.0092-4.6709-2.801-9.105-5.9732-1.107-.79-2.1991-1.6007-.5514-.4093-1.099-.824c-.1572-.1189-.3136-.2389-.4709-.3577-1.0678-.8063.7331.5853.1161.0918-1.5214-1.2167-3.05-2.42-4.5417-3.6742a172.2014,172.2014,0,0,1-18.03-17.6442q-2.2208-2.5063-4.3527-5.09-1.05-1.2718-2.079-2.5613-.52-.651-1.0336-1.3064c-.1969-.2509-.3922-.503-.5888-.7541-.5569-.711.8543,1.1236-.0891-.1187q-4.3491-5.7272-8.3355-11.7135a246.6643,246.6643,0,0,1-15.6415-27.3394c-4.6882-9.5184-7.8545-17.3439-11.7107-27.0958q-5.3-13.4028-10.337-26.9077Q78.6967,176.034,67.9,143.9564q-5.5329-16.4442-10.7315-32.9988c-.7059-2.2563-1.5056-4.5083-2.0735-6.8039-.1444-.5836-.2381-1.1728-.36-1.76-.1976-.9492.1546,1.6374.0616.4648-.0265-.3347-.0647-.6681-.0854-1.0034a25.2558,25.2558,0,0,1,.0779-3.6271c.1011-1.2355-.1306.7042-.07.4733.0736-.28.0951-.585.15-.871q.1915-1.0017.4649-1.9855.2418-.8742.5423-1.7309c.1011-.2894.2114-.5752.3175-.8629.0457-.124.1-.245.1448-.3693.3214-.8862-.5481,1.2145-.2445.5729.5684-1.2012,1.1321-2.3915,1.7981-3.5438.6967-1.2056,1.458-2.3734,2.2668-3.5066.2015-.2822.4087-.56.6131-.84.1153-.1582.2606-.3135.3615-.479.0507-.0832-.8775,1.103-.4747.6167.4906-.5923.9629-1.1989,1.4621-1.7845a76.0658,76.0658,0,0,1,6.73-6.8871q1.8657-1.6972,3.8156-3.2988.9651-.7953,1.947-1.57c.2131-.1682,1.279-1.0161.5345-.4209s.452-.34.7-.5262c12.1515-9.1338,25.6371-16.467,39.301-23.059q5.01-2.4169,10.0862-4.6932,2.4424-1.0972,4.898-2.1652,1.1562-.5031,2.3152-1,.6526-.28,1.3063-.5577c.4054-.1724,1.9027-.7786.1812-.0782,5.5751-2.2684,11.1319-4.5665,16.7594-6.7045,9.3229-3.5419,18.8455-6.39,28.4628-9.0245a396.617,396.617,0,0,1,41.9265-9.2988q2.7759-.4451,5.56-.8345c.1916-.0267.3832-.0528.5748-.08,1.0478-.1464-.3293.0521-.4463.0594.4462-.0277.8948-.1173,1.3388-.1737q1.43-.1815,2.8618-.3459c3.6879-.4224,7.3865-.756,11.0924-.97a121.0757,121.0757,0,0,1,20.2785.3315c.3762.0416.7515.0917,1.1278.1322.89.096-1.5455-.2319-.0076-.0005.7771.1169,1.5532.2381,2.3268.3767,1.4437.2585,2.8794.5634,4.3009.9252,1.3541.3446,2.6953.741,4.0152,1.2.6148.2137,1.22.4488,1.8277.6819,1.1237.4313-1.1821-.536-.2984-.13.3266.15.6564.2928.9813.4466a31.965,31.965,0,0,1,3.4408,1.8862c.5008.3175.984.6584,1.47.9978.79.5518-.1039-.013-.415-.3333.2517.2592.5888.4749.8629.7113a23.227,23.227,0,0,1,2.51,2.5174c.1759.2064.8615,1.0888.1468.1505-.6961-.9138-.0488-.0548.1152.1764q.5327.7515,1,1.5465.441.75.8208,1.5337a8.36,8.36,0,0,0,.3689.8c.0061.01-.5948-1.5521-.3116-.7294.09.2612.197.5183.2938.777q1.5247,4.0746,3.01,8.1639,2.9388,8.0492,5.7865,16.131,5.8178,16.4963,11.3183,33.1019,10.1628,30.6205,19.3479,61.557c2.6722,9.05,5.357,18.1139,7.6748,27.2621q2.2695,8.9577,3.9494,18.0513.7833,4.2683,1.4231,8.5613c.1009.6781.1972,1.3568.2945,2.0354.0067.0466.1406,1.0018.0518.3595-.0976-.7064.0646.4909.0845.6442q.2772,2.1408.5165,4.2862a216.21,216.21,0,0,1,1.27,31.4435q-.2488,7.1353-1.0325,14.2385c-.1229,1.101-.2621,2.2-.3995,3.2988-.1106.885.1548-1.0772.026-.1979-.0339.2314-.0647.4633-.0978.6949q-.1317.921-.2736,1.84-.5217,3.3825-1.1816,6.7417a146.6272,146.6272,0,0,1-6.6792,23.6314q-.4914,1.2972-1.01,2.5839a9.1568,9.1568,0,0,1-.595,1.45c-.0145.0014.4941-1.1385.2263-.537-.1311.2947-.2543.5934-.3831.8891q-1.1018,2.5283-2.3165,5.0053c-1.5478,3.1536-3.2364,6.2391-5.0751,9.2326q-1.3164,2.1433-2.7357,4.221-.67.9792-1.3633,1.942a10.4483,10.4483,0,0,0-1.59,2.1424c-.0171.0529.8263-1.051.4346-.5619-.1367.1707-.2693.3447-.4049.5163q-.354.4478-.7133.8911-.8124,1.0015-1.6539,1.9786-2.9246,3.4035-6.1236,6.558-2.9544,2.9075-6.1386,5.5682-.7323.6111-1.4759,1.2082c-.2793.2241-.5619.4438-.8414.6675.0756-.06.708-.5351.1649-.1269-1.0336.7769-2.0707,1.5476-3.1294,2.29a99.9425,99.9425,0,0,1-11.86,7.132q-2.5929,1.3274-5.254,2.515-.6306.2825-1.2645.5578c-.1781.0773-.3578.1515-.5351.2308-.7328.3275,1.1111-.4553.375-.1565-.8013.3254-1.5986.66-2.4023.98-2.8653,1.14-5.7661,2.1866-8.6585,3.2557-2.9355,1.0851-5.2476,4.1144-4.1906,7.3807.9312,2.8774,4.2288,5.3557,7.3807,4.1907a184.6833,184.6833,0,0,0,20.9921-8.7915,105.08,105.08,0,0,0,25.3227-18.417c11.7865-11.5993,20.27-25.6717,26.1764-41.0481,6.5339-17.01,9.5813-35.3287,10.2617-53.49.8658-23.1138-2.2749-46.3774-7.9206-68.7646-4.9172-19.4985-10.9918-38.7574-17.0209-57.9339q-10.52-33.46-22.1933-66.546-2.9506-8.3282-5.9952-16.6228c-1.3983-3.8055-2.5843-7.8561-4.774-11.3046A31.2484,31.2484,0,0,0,282.6747,5.89C270.2893.0288,255.8933-.48,242.4355.2676c-15.5506.8645-31.0193,3.5848-46.1928,7.0124-12.2556,2.7684-24.3931,6.0682-36.3957,9.7805a336.0832,336.0832,0,0,0-31.5013,12.0418A352.9169,352.9169,0,0,0,87.215,49.3784,183.1107,183.1107,0,0,0,67.8761,62.3166,90.5571,90.5571,0,0,0,52.8416,76.3818C48.7851,81.3468,45.2345,86.8676,43.63,93.15a28.5391,28.5391,0,0,0-.9193,8.7047c.2529,4.1029,1.4957,7.8417,2.7129,11.7382C52.4452,136.07,60.005,158.3785,67.9068,180.56c7.0147,19.6913,14.288,39.2971,22,58.7267,7.9678,20.0732,16.98,39.5856,29.1111,57.5233,10.2657,15.1786,22.3319,29.3032,36.5068,40.97a137.4471,137.4471,0,0,0,39.085,23.096,106.1561,106.1561,0,0,0,55.6269,4.7191,171.4731,171.4731,0,0,0,20.64-5.4593c2.9931-.9308,5.2113-4.2268,4.1907-7.3808C274.0929,349.7447,270.8961,347.5666,267.6864,348.5647Z"/><path d="M92.8615,72.0138a54.6793,54.6793,0,0,0-14.5569,11.08c-4.21,4.7541-7.1617,10.9824-4.3291,17.1964,3.061,6.7148,11.53,8.4448,18.11,8.9955,9.4487.7909,19.1187-.6,28.415-2.1746,10.578-1.7914,21.0384-4.2667,31.3972-7.0448q13.123-3.5193,26.0482-7.7374c8.2242-2.6884,16.3155-5.8817,24.33-9.1325,10.18-4.129,20.267-8.53,30.0644-13.5056,8.7968-4.4673,17.4687-9.3776,25.1515-15.61,5.243-4.2532,11.2277-10.2763,11.1587-17.5487-.1177-12.41-15.5-14.3876-24.9337-13.9747a76.5446,76.5446,0,0,0-8.1613.8462c-2.3348.3552-3.83,3.412-3.143,5.5355.8233,2.5442,3.0334,3.5236,5.5355,3.143.2538-.0386.5079-.075.7619-.1125.9678-.1428-1.1263.1334-.1327.02.5615-.0642,1.1222-.1317,1.6847-.1867q1.9558-.1913,3.9209-.2642c1.2625-.0456,2.5268-.0524,3.79-.0106q.95.0313,1.8991.1012.471.0352.941.0811.3114.03.6222.0661.7552.0926-.2725-.0427a5.56,5.56,0,0,1,1.8028.3079c.5793.1175,1.1551.2529,1.7247.4111.5483.1523,1.0911.3247,1.6245.5231.62.23.48.504-.0584-.0385a4.6432,4.6432,0,0,0,.9556.4715,11.9438,11.9438,0,0,0,1.305.8182c-.8493-.3131-.5446-.4848-.1359-.08.172.17.3486.3464.5265.51.6857.6315.0823-.1405-.08-.1714.1033.02.351.51.4059.6.1263.2074.222.4354.35.6406.4635.7461-.3143-1.0956-.1214-.2371.0587.2612.1369.5216.2.7824.2668,1.1064-.051-1.1844-.0334-.2726.0052.2675.0272.5325.0208.8007-.0145.615-.3947,1.4581.065-.1167-.1577.54-.221,1.103-.3994,1.6431-.1649.4992-.7182,1.275.0842-.1044-.1791.3079-.3006.6613-.4662.9786a17.6923,17.6923,0,0,1-1.0161,1.6945c-.1953.29-.4055.5687-.6067.8544-.4385.6224.7544-.9311.2638-.3388-.1573.19-.309.3845-.4673.5737a37.4172,37.4172,0,0,1-3.5113,3.6173q-.9878.9-2.02,1.75c-.3585.2962-.7224.5854-1.0849.8768-.2643.2124-.795.7976.1611-.1187a8.2325,8.2325,0,0,1-.77.5851c-1.7042,1.2785-3.4586,2.4895-5.2427,3.6535-3.973,2.5921-8.0927,4.9564-12.2748,7.1933-4.5157,2.4153-9.112,4.6785-13.7532,6.842q-3.5282,1.6448-7.0907,3.2145-1.6959.7484-3.3982,1.4816-.8448.3641-1.6911.7244-.4212.1794-.8427.358-.678.2866.2345-.0987-.2795.1178-.559.2351-12.38,5.1955-25.0265,9.7273c-7.5055,2.6917-15.1635,4.9808-22.8282,7.1717-9.7552,2.7886-19.5936,5.3158-29.5284,7.3824-4.937,1.0269-9.9,1.9385-14.8919,2.6559-.363.0522-2.3025.232-.8111.1165-.5665.0439-1.1345.1472-1.6988.216q-1.7991.2192-3.6032.3955c-2.1867.212-4.3791.3721-6.5746.4554-1.9995.0759-4.0027.0894-6.0021.0042-.8814-.0376-1.7621-.0942-2.6406-.1757-.4192-.0389-.8372-.087-1.2555-.134-.3888-.0436-1.0572-.2728.3844.0538-.2576-.0584-.53-.0783-.7912-.1214a26.0934,26.0934,0,0,1-4.4428-1.1c-.306-.1081-.6159-.2749-.9287-.3557,1.512.391.5412.2318.0633-.0084a17.0066,17.0066,0,0,1-1.6641-.9968c-.7751-.5068.97.8751.1354.09-.2005-.1887-.4049-.37-.5947-.57-.385-.4055-.6557-1.14.0939.1926-.1507-.2679-.3606-.5083-.5165-.7762-.1321-.2269-.2223-.496-.3666-.7124.811,1.2163.2905.7786.1175.1876a4.3964,4.3964,0,0,0-.1757-.8051c.3868.669.0779.8208.0639.1176-.0054-.2721.0173-.54.0253-.8114.023-.7838-.2385,1.088.0558-.1572.0646-.2733.1415-.5437.2281-.8109.3246-1.0013-.0658-.0228-.0432-.0026a8.3,8.3,0,0,1,.824-1.6028c.3218-.5456.6843-1.0592,1.0456-1.5786.63-.9065-.6362.7205.1006-.1236.2948-.3377.5779-.6845.8791-1.0168a36.377,36.377,0,0,1,2.99-2.918q.8018-.7026,1.6353-1.3677c.1369-.11,1.0942-.8258.21-.1682.3769-.28.7521-.5622,1.1332-.8366a65.0074,65.0074,0,0,1,6.5408-4.13,4.5442,4.5442,0,0,0,1.6144-6.1568,4.5919,4.5919,0,0,0-6.1569-1.6144Z"/><path d="M240.6526,59.884c-6.8181,3.6707-13.5344,7.5262-20.36,11.1833a144.711,144.711,0,0,1-20.53,8.8217c-7.0012,2.4641-13.7266,5.6-20.6782,8.1853-.2631.0978-.5295.1865-.7929.2834a5.4476,5.4476,0,0,0-1.2818.2432c-14.5438,4.6076-29.581,8.3424-44.3642,12.1212a106.18,106.18,0,0,1-23.2289,2.9195c-3.666.1318-7.2306.9667-10.862,1.4229-.9593.1205-2.1.3346-3.2777.5017-1.82-.0831-3.6261-.23-5.4184-.4277,9.723-15.6831,39.6931-34.6055,77.8178-47.5695,38.0595-12.9418,73.2832-16.2153,90.5827-9.7544C253.2976,53.1079,247.0858,56.4205,240.6526,59.884Z"/><path d="M67.8557,152.8637c-10.8352-2.3568-22.21-3.0336-33.0335-.2209a46.3937,46.3937,0,0,0-22.55,13.2757,46.859,46.859,0,0,0-11.19,21.8893c-1.9932,9.567-1.012,18.9736,1.1513,28.43a121.0429,121.0429,0,0,0,28.4071,53.6957,116.1081,116.1081,0,0,0,14.863,13.8714,154.2226,154.2226,0,0,0,32.1234,19.506,135.97,135.97,0,0,0,29.4485,9.4052,151.75,151.75,0,0,0,23.904,2.5875c1.4983.046,2.9971.0728,4.4959.0884a6,6,0,0,0,0-12c-3.1518-.0329-6.3031-.1214-9.45-.3122q-2.5633-.1554-5.12-.4-1.3515-.13-2.7-.2866-.6925-.08-1.3841-.1681c-.2793-.0354-.5638-.0608-.8411-.1093l1.03.1378q-.2844-.0391-.5687-.0795a128.3931,128.3931,0,0,1-26.3925-6.6651q-1.6742-.6182-3.3312-1.2818c-.5936-.2376-1.1841-.4827-1.7756-.7257-.8049-.3307,1.4.6065.1815.0753-.3594-.1567-.72-.3108-1.0788-.4685q-3.9027-1.7151-7.6941-3.67a151.3653,151.3653,0,0,1-15.6654-9.3349c-2.5656-1.7416-5.07-3.5664-7.5423-5.4377-.5933-.4491.8121.6763.7721.5968-.0581-.1156-.3463-.27-.45-.3513q-.3843-.3021-.7656-.6077-.8415-.6744-1.6689-1.3662-3.7567-3.1388-7.234-6.5936-4.0487-4.0119-7.7077-8.3934-.9636-1.1538-1.8985-2.3314c-.27-.34-1.43-1.8911-.1968-.2381-.3731-.5-.757-.9922-1.13-1.4927q-1.9721-2.6487-3.7949-5.4042a114.849,114.849,0,0,1-7.1314-12.383q-.8042-1.6242-1.5562-3.2735-.3812-.8364-.7486-1.679c-.0986-.2261-.1958-.4529-.2936-.6794-.4758-1.1024.534,1.2935-.043-.1123q-1.4838-3.6153-2.71-7.3291a110.7289,110.7289,0,0,1-4.0343-16.2936c-.1058-.6271-.2076-1.255-.3017-1.884-.2288-1.53.1678,1.4337-.0084-.06q-.1779-1.5088-.2648-3.0266a48.716,48.716,0,0,1,.008-5.723q.0816-1.3449.24-2.6837c.1742-1.4717-.2284,1.5025.0023.002q.1116-.7255.2465-1.4471a44.1729,44.1729,0,0,1,1.32-5.2631q.3981-1.2525.8727-2.4788c.18-.4633.9138-2.0167-.0094-.0218.22-.4749.4235-.9566.6491-1.429a39.981,39.981,0,0,1,2.55-4.5543c.4755-.7318.9823-1.4388,1.4971-2.1431.6316-.8642-.9726,1.2163-.298.3844.11-.1359.2183-.2733.3289-.4089q.4984-.6111,1.022-1.2015a38.1446,38.1446,0,0,1,3.9924-3.8882c.3434-.2886.7041-.5575,1.0455-.8479.0029-.0025-1.2955.972-.57.4446.22-.16.4369-.3235.6579-.4819q1.1163-.8,2.2871-1.5195a50.9781,50.9781,0,0,1,5.2735-2.729c-1.933.8993-.2541.1169.19-.0525q.6918-.2639,1.3922-.5041,1.5759-.5408,3.1887-.9643,1.5125-.3983,3.0486-.6972.7074-.1381,1.4184-.2558c.2665-.0442.5337-.0831.8-.1265,1.1761-.1915-1.4074.1647-.296.0361a65.6046,65.6046,0,0,1,15.0008.0224c.2589.03.5174.0618.776.0926,1.397.1662-1.428-.2218-.0263-.0029.5974.0933,1.1954.1806,1.7917.2807,1.4368.2412,2.8656.5231,4.2892.8328,3.0594.6654,6.6342-.9131,7.3807-4.1907.6895-3.0268-.9107-6.6672-4.1906-7.3807Z"/><path d="M75.54,179.6888c-6.4174-1.3946-13.1816-2.3309-19.7464-1.5456-5.3329.6379-10.708,2.0173-15.0793,5.2916a25.4852,25.4852,0,0,0-9.0219,12.3208,32.1629,32.1629,0,0,0-1.2534,14.2577,79.0664,79.0664,0,0,0,14.77,37.1578,87.2333,87.2333,0,0,0,10.5666,12.0264,111.4776,111.4776,0,0,0,13.2551,10.3044c12.0947,8.2769,25.507,14.4085,40.2733,15.468,1.6267.1168,3.2565.1631,4.8871.158a6,6,0,1,0,0-12c-1.5065.0047-3.0121-.0338-4.5155-.1324q-1.1115-.073-2.22-.1867c-.3677-.0377-.7344-.0832-1.1018-.1235q-.9816-.1242.4982.0707-.3646-.0513-.7288-.107a60.5489,60.5489,0,0,1-8.99-2.0983q-2.1651-.681-4.28-1.5108c-.3581-.14-.7135-.2866-1.0707-.4291-1.2773-.5094,1.2657.5657.0038.0008-.8394-.3759-1.6791-.749-2.5092-1.1456a96.28,96.28,0,0,1-9.1127-5.0141c-3.2653-2.019-6.4311-4.1967-9.525-6.4688q-.992-.7286-1.9748-1.47c-1.218-.9222,1.1662.927.1769.1386-.7-.5582-1.3956-1.1223-2.0772-1.7036A77.7683,77.7683,0,0,1,57.656,243.74q-.5771-.6882-1.1383-1.3891c-.19-.2377-.3727-.4836-.5677-.7174,1.1994,1.4381.4369.5682.1839.234q-1.2523-1.6545-2.416-3.3736a76.1728,76.1728,0,0,1-4.3667-7.2953q-.9181-1.75-1.7427-3.5472-.2294-.5-.4511-1.0032c-.19-.43-.3906-1.4849.0211.0717-.2185-.826-.6681-1.6458-.9693-2.4485a72.8826,72.8826,0,0,1-2.827-9.4291q-.5544-2.4361-.9422-4.9064c-.07-.4456-.2043-1.8279.0334.35-.03-.2725-.068-.5441-.0976-.8167q-.1015-.9346-.1555-1.8736c-.0584-1.0321-.0711-2.067-.03-3.1q.03-.7476.0979-1.4929c.0225-.2441.0548-.4873.0773-.7313.0925-1.0016-.3081,1.8073-.0433.3994a28.0186,28.0186,0,0,1,.6268-2.7445q.1937-.6577.4286-1.3024c.0767-.21.1792-.4193.2433-.6328-.5808,1.9334-.4062.9365-.1564.4065a18.8039,18.8039,0,0,1,1.1771-2.1306c.237-.37.5226-.7124.753-1.0844-1.1594,1.8724-.2685.3557.1884-.142q.5264-.5733,1.1014-1.0994c.5083-.4653,2.0283-1.3241.1772-.2142.9406-.564,1.7969-1.2282,2.7786-1.7363.5285-.2735,2.49-1.0053.3523-.219.5609-.2063,1.1123-.43,1.6812-.6159a28.3019,28.3019,0,0,1,3.6974-.9248c.283-.0515.5672-.0947.8507-.143,1.0352-.1765-1.7226.1972-.131.02q1.0705-.119,2.1468-.176a45.7153,45.7153,0,0,1,4.6358-.0063q1.247.0589,2.49.176.5518.0513,1.1026.113.3736.0419.7468.0881.9826.126-.457-.0629a15.2919,15.2919,0,0,0,2.7385.4445c.9554.1739,1.9065.3686,2.8554.5748,3.0594.6649,6.6341-.9127,7.3807-4.1906.6893-3.0264-.9106-6.668-4.1907-7.3807Z"/><path d="M124.04,78.7984c-2.83,1.0108-4.8582,3.1373-7.325,4.7474a18.0021,18.0021,0,0,1-8.5132,2.8891,1.5367,1.5367,0,0,0-1.5,1.5,1.5124,1.5124,0,0,0,1.5,1.5,21.29,21.29,0,0,0,9.3081-2.8518c2.5048-1.48,4.55-3.9,7.3276-4.8919a1.5385,1.5385,0,0,0,1.0477-1.8452,1.5132,1.5132,0,0,0-1.8452-1.0476Z"/><path class="cls-1" d="M57.2347,163.1959s6.8667,1.25,8.6868.89c3.3031-.6526,7.7272-3.4682,6.0609-8.34s6.2905.0333,6.2905.0333L88.55,186.6324l-5.4923.6517s-2.4054-6.7753-7.1794-7.7919a102.1481,102.1481,0,0,0-10.1506-1.3712Z"/><path class="cls-1" d="M108.135,284.8276s8.0634.5826,10.21.3128c1.5094-.19,5.7617-1.9232,2.8018-7.4415s6.8441-1.6638,6.8441-1.6638l17.9067,25.4222-2.4093,5.2139-1.0067,1.3079a18.081,18.081,0,0,0-11.5145-4.7452c-7.1891-.2871-8.7186-.4885-8.7186-.4885Z"/></g></g></svg>